<?xml version="1.0" standalone="no"?>
<!DOCTYPE svg PUBLIC "-//W3C//DTD SVG 20010904//EN"
 "http://www.w3.org/TR/2001/REC-SVG-20010904/DTD/svg10.dtd">
<svg version="1.0" xmlns="http://www.w3.org/2000/svg"
 width="300.000000pt" height="300.000000pt" viewBox="0 0 300.000000 300.000000"
 preserveAspectRatio="xMidYMid meet">
<metadata>
Created by potrace 1.10, written by Peter Selinger 2001-2011
</metadata>
<g transform="translate(0.000000,300.000000) scale(0.100000,-0.100000)"
fill="maroon" stroke="#ffffff">
<path d="M1305 2975 c-309 -68 -571 -326 -645 -635 -28 -118 -28 -306 0 -416
27 -104 95 -245 155 -319 56 -70 152 -162 178 -171 28 -9 20 -20 -25 -33 -77
-23 -253 -120 -354 -194 -348 -258 -577 -663 -601 -1064 -10 -152 10 -112 48
99 54 305 191 570 403 782 127 127 245 211 412 292 72 35 137 70 144 79 21 26
3 58 -74 128 -118 106 -205 252 -247 412 -23 86 -25 280 -5 376 43 201 176
393 353 509 89 59 174 93 309 125 58 14 113 29 122 35 26 14 -101 11 -173 -5z"/>
<path d="M1522 2981 c9 -6 65 -22 124 -36 191 -46 306 -105 427 -223 104 -101
166 -200 213 -339 22 -65 27 -102 31 -219 5 -121 2 -152 -16 -225 -42 -167
-128 -310 -256 -425 -78 -71 -91 -97 -57 -126 9 -8 73 -42 142 -75 436 -211
724 -595 809 -1080 12 -67 28 -139 36 -160 15 -37 15 -35 11 62 -10 235 -95
478 -245 705 -75 113 -233 277 -355 367 -101 74 -277 171 -353 194 -38 11 -59
29 -34 29 18 0 131 105 182 170 64 80 131 218 159 324 28 110 28 298 0 416
-84 348 -406 628 -745 646 -66 4 -86 2 -73 -5z"/>
<path d="M1405 2800 c-219 -30 -420 -183 -520 -395 -57 -122 -71 -299 -35
-439 31 -121 82 -208 180 -307 145 -145 302 -207 504 -196 179 9 310 68 443
202 90 91 147 193 177 316 46 189 -4 406 -131 571 -138 180 -387 280 -618 248z
m240 -52 c28 -5 88 -28 134 -50 114 -54 231 -169 284 -278 88 -182 90 -395 6
-563 -62 -122 -130 -196 -252 -270 -99 -61 -182 -82 -317 -82 -135 0 -218 21
-317 82 -88 54 -128 88 -177 152 -94 121 -136 243 -136 391 0 180 58 320 184
445 165 164 361 221 591 173z"/>
<path d="M1358 1300 c-508 -58 -942 -414 -1103 -905 -50 -154 -75 -395 -41
-395 10 0 16 14 20 43 2 23 9 82 15 132 22 198 114 422 240 585 87 112 232
245 346 317 124 78 311 149 464 174 85 14 317 14 402 0 153 -25 340 -96 464
-174 114 -72 259 -205 346 -317 126 -163 218 -387 240 -585 6 -50 13 -109 15
-132 4 -29 10 -43 20 -43 38 0 4 264 -57 437 -152 430 -539 762 -988 847 -101
19 -286 27 -383 16z"/>
</g>
</svg>
