<svg width="1559" height="1362" viewBox="0 0 1559 1362" fill="none" xmlns="http://www.w3.org/2000/svg">
<rect x="0.624329" y="0.235352" width="1558.01" height="1361.7" fill="white"/>
<rect x="95.7615" y="90.8213" width="590.996" height="660.664" stroke="#0C8CE9" stroke-width="6" stroke-dasharray="6 6"/>
<circle cx="391.681" cy="369.19" r="125" fill="#2B2E30"/>
<path d="M139.531 146.486V168.086C139.531 170.452 140.147 172.269 141.381 173.536C142.614 174.769 144.347 175.386 146.581 175.386C148.847 175.386 150.597 174.769 151.831 173.536C153.064 172.269 153.681 170.452 153.681 168.086V146.486H160.731V168.036C160.731 171.002 160.081 173.519 158.781 175.586C157.514 177.619 155.797 179.152 153.631 180.186C151.497 181.219 149.114 181.736 146.481 181.736C143.881 181.736 141.514 181.219 139.381 180.186C137.281 179.152 135.614 177.619 134.381 175.586C133.147 173.519 132.531 171.002 132.531 168.036V146.486H139.531ZM174.494 157.686C175.394 156.419 176.627 155.369 178.194 154.536C179.794 153.669 181.611 153.236 183.644 153.236C186.011 153.236 188.144 153.819 190.044 154.986C191.977 156.152 193.494 157.819 194.594 159.986C195.727 162.119 196.294 164.602 196.294 167.436C196.294 170.269 195.727 172.786 194.594 174.986C193.494 177.152 191.977 178.836 190.044 180.036C188.144 181.236 186.011 181.836 183.644 181.836C181.611 181.836 179.811 181.419 178.244 180.586C176.711 179.752 175.461 178.702 174.494 177.436V194.586H167.494V153.686H174.494V157.686ZM189.144 167.436C189.144 165.769 188.794 164.336 188.094 163.136C187.427 161.902 186.527 160.969 185.394 160.336C184.294 159.702 183.094 159.386 181.794 159.386C180.527 159.386 179.327 159.719 178.194 160.386C177.094 161.019 176.194 161.952 175.494 163.186C174.827 164.419 174.494 165.869 174.494 167.536C174.494 169.202 174.827 170.652 175.494 171.886C176.194 173.119 177.094 174.069 178.194 174.736C179.327 175.369 180.527 175.686 181.794 175.686C183.094 175.686 184.294 175.352 185.394 174.686C186.527 174.019 187.427 173.069 188.094 171.836C188.794 170.602 189.144 169.136 189.144 167.436ZM208.381 144.386V181.386H201.381V144.386H208.381ZM227.597 181.836C224.93 181.836 222.53 181.252 220.397 180.086C218.263 178.886 216.58 177.202 215.347 175.036C214.147 172.869 213.547 170.369 213.547 167.536C213.547 164.702 214.163 162.202 215.397 160.036C216.663 157.869 218.38 156.202 220.547 155.036C222.713 153.836 225.13 153.236 227.797 153.236C230.463 153.236 232.88 153.836 235.047 155.036C237.213 156.202 238.913 157.869 240.147 160.036C241.413 162.202 242.047 164.702 242.047 167.536C242.047 170.369 241.397 172.869 240.097 175.036C238.83 177.202 237.097 178.886 234.897 180.086C232.73 181.252 230.297 181.836 227.597 181.836ZM227.597 175.736C228.863 175.736 230.047 175.436 231.147 174.836C232.28 174.202 233.18 173.269 233.847 172.036C234.513 170.802 234.847 169.302 234.847 167.536C234.847 164.902 234.147 162.886 232.747 161.486C231.38 160.052 229.697 159.336 227.697 159.336C225.697 159.336 224.013 160.052 222.647 161.486C221.313 162.886 220.647 164.902 220.647 167.536C220.647 170.169 221.297 172.202 222.597 173.636C223.93 175.036 225.597 175.736 227.597 175.736ZM245.381 167.436C245.381 164.636 245.931 162.152 247.031 159.986C248.165 157.819 249.681 156.152 251.581 154.986C253.515 153.819 255.665 153.236 258.031 153.236C260.098 153.236 261.898 153.652 263.431 154.486C264.998 155.319 266.248 156.369 267.181 157.636V153.686H274.231V181.386H267.181V177.336C266.281 178.636 265.031 179.719 263.431 180.586C261.865 181.419 260.048 181.836 257.981 181.836C255.648 181.836 253.515 181.236 251.581 180.036C249.681 178.836 248.165 177.152 247.031 174.986C245.931 172.786 245.381 170.269 245.381 167.436ZM267.181 167.536C267.181 165.836 266.848 164.386 266.181 163.186C265.515 161.952 264.615 161.019 263.481 160.386C262.348 159.719 261.131 159.386 259.831 159.386C258.531 159.386 257.331 159.702 256.231 160.336C255.131 160.969 254.231 161.902 253.531 163.136C252.865 164.336 252.531 165.769 252.531 167.436C252.531 169.102 252.865 170.569 253.531 171.836C254.231 173.069 255.131 174.019 256.231 174.686C257.365 175.352 258.565 175.686 259.831 175.686C261.131 175.686 262.348 175.369 263.481 174.736C264.615 174.069 265.515 173.136 266.181 171.936C266.848 170.702 267.181 169.236 267.181 167.536ZM279.268 167.436C279.268 164.636 279.818 162.152 280.918 159.986C282.051 157.819 283.585 156.152 285.518 154.986C287.451 153.819 289.601 153.236 291.968 153.236C293.768 153.236 295.485 153.636 297.118 154.436C298.751 155.202 300.051 156.236 301.018 157.536V144.386H308.118V181.386H301.018V177.286C300.151 178.652 298.935 179.752 297.368 180.586C295.801 181.419 293.985 181.836 291.918 181.836C289.585 181.836 287.451 181.236 285.518 180.036C283.585 178.836 282.051 177.152 280.918 174.986C279.818 172.786 279.268 170.269 279.268 167.436ZM301.068 167.536C301.068 165.836 300.735 164.386 300.068 163.186C299.401 161.952 298.501 161.019 297.368 160.386C296.235 159.719 295.018 159.386 293.718 159.386C292.418 159.386 291.218 159.702 290.118 160.336C289.018 160.969 288.118 161.902 287.418 163.136C286.751 164.336 286.418 165.769 286.418 167.436C286.418 169.102 286.751 170.569 287.418 171.836C288.118 173.069 289.018 174.019 290.118 174.686C291.251 175.352 292.451 175.686 293.718 175.686C295.018 175.686 296.235 175.369 297.368 174.736C298.501 174.069 299.401 173.136 300.068 171.936C300.735 170.702 301.068 169.236 301.068 167.536ZM342.219 153.286C345.519 153.286 348.186 154.336 350.219 156.436C352.252 158.502 353.269 161.402 353.269 165.136V181.386H346.269V166.086C346.269 163.886 345.719 162.202 344.619 161.036C343.519 159.836 342.019 159.236 340.119 159.236C338.186 159.236 336.652 159.836 335.519 161.036C334.419 162.202 333.869 163.886 333.869 166.086V181.386H326.869V153.686H333.869V157.136C334.802 155.936 335.986 155.002 337.419 154.336C338.886 153.636 340.486 153.286 342.219 153.286ZM385.676 166.936C385.676 167.936 385.609 168.836 385.476 169.636H365.226C365.392 171.636 366.092 173.202 367.326 174.336C368.559 175.469 370.076 176.036 371.876 176.036C374.476 176.036 376.326 174.919 377.426 172.686H384.976C384.176 175.352 382.642 177.552 380.376 179.286C378.109 180.986 375.326 181.836 372.026 181.836C369.359 181.836 366.959 181.252 364.826 180.086C362.726 178.886 361.076 177.202 359.876 175.036C358.709 172.869 358.126 170.369 358.126 167.536C358.126 164.669 358.709 162.152 359.876 159.986C361.042 157.819 362.676 156.152 364.776 154.986C366.876 153.819 369.292 153.236 372.026 153.236C374.659 153.236 377.009 153.802 379.076 154.936C381.176 156.069 382.792 157.686 383.926 159.786C385.092 161.852 385.676 164.236 385.676 166.936ZM378.426 164.936C378.392 163.136 377.742 161.702 376.476 160.636C375.209 159.536 373.659 158.986 371.826 158.986C370.092 158.986 368.626 159.519 367.426 160.586C366.259 161.619 365.542 163.069 365.276 164.936H378.426ZM429.185 153.686L421.085 181.386H413.535L408.485 162.036L403.435 181.386H395.835L387.685 153.686H394.785L399.685 174.786L404.985 153.686H412.385L417.585 174.736L422.485 153.686H429.185ZM451.887 157.986C452.787 156.519 453.953 155.369 455.387 154.536C456.853 153.702 458.52 153.286 460.387 153.286V160.636H458.537C456.337 160.636 454.67 161.152 453.537 162.186C452.437 163.219 451.887 165.019 451.887 167.586V181.386H444.887V153.686H451.887V157.986ZM490.851 166.936C490.851 167.936 490.785 168.836 490.651 169.636H470.401C470.568 171.636 471.268 173.202 472.501 174.336C473.735 175.469 475.251 176.036 477.051 176.036C479.651 176.036 481.501 174.919 482.601 172.686H490.151C489.351 175.352 487.818 177.552 485.551 179.286C483.285 180.986 480.501 181.836 477.201 181.836C474.535 181.836 472.135 181.252 470.001 180.086C467.901 178.886 466.251 177.202 465.051 175.036C463.885 172.869 463.301 170.369 463.301 167.536C463.301 164.669 463.885 162.152 465.051 159.986C466.218 157.819 467.851 156.152 469.951 154.986C472.051 153.819 474.468 153.236 477.201 153.236C479.835 153.236 482.185 153.802 484.251 154.936C486.351 156.069 487.968 157.686 489.101 159.786C490.268 161.852 490.851 164.236 490.851 166.936ZM483.601 164.936C483.568 163.136 482.918 161.702 481.651 160.636C480.385 159.536 478.835 158.986 477.001 158.986C475.268 158.986 473.801 159.519 472.601 160.586C471.435 161.619 470.718 163.069 470.451 164.936H483.601ZM506.561 181.836C504.294 181.836 502.261 181.436 500.461 180.636C498.661 179.802 497.227 178.686 496.161 177.286C495.127 175.886 494.561 174.336 494.461 172.636H501.511C501.644 173.702 502.161 174.586 503.061 175.286C503.994 175.986 505.144 176.336 506.511 176.336C507.844 176.336 508.877 176.069 509.611 175.536C510.377 175.002 510.761 174.319 510.761 173.486C510.761 172.586 510.294 171.919 509.361 171.486C508.461 171.019 507.011 170.519 505.011 169.986C502.944 169.486 501.244 168.969 499.911 168.436C498.611 167.902 497.477 167.086 496.511 165.986C495.577 164.886 495.111 163.402 495.111 161.536C495.111 160.002 495.544 158.602 496.411 157.336C497.311 156.069 498.577 155.069 500.211 154.336C501.877 153.602 503.827 153.236 506.061 153.236C509.361 153.236 511.994 154.069 513.961 155.736C515.927 157.369 517.011 159.586 517.211 162.386H510.511C510.411 161.286 509.944 160.419 509.111 159.786C508.311 159.119 507.227 158.786 505.861 158.786C504.594 158.786 503.611 159.019 502.911 159.486C502.244 159.952 501.911 160.602 501.911 161.436C501.911 162.369 502.377 163.086 503.311 163.586C504.244 164.052 505.694 164.536 507.661 165.036C509.661 165.536 511.311 166.052 512.611 166.586C513.911 167.119 515.027 167.952 515.961 169.086C516.927 170.186 517.427 171.652 517.461 173.486C517.461 175.086 517.011 176.519 516.111 177.786C515.244 179.052 513.977 180.052 512.311 180.786C510.677 181.486 508.761 181.836 506.561 181.836ZM549.357 153.686V181.386H542.307V177.886C541.407 179.086 540.224 180.036 538.757 180.736C537.324 181.402 535.757 181.736 534.057 181.736C531.89 181.736 529.974 181.286 528.307 180.386C526.64 179.452 525.324 178.102 524.357 176.336C523.424 174.536 522.957 172.402 522.957 169.936V153.686H529.957V168.936C529.957 171.136 530.507 172.836 531.607 174.036C532.707 175.202 534.207 175.786 536.107 175.786C538.04 175.786 539.557 175.202 540.657 174.036C541.757 172.836 542.307 171.136 542.307 168.936V153.686H549.357ZM590.663 153.286C594.063 153.286 596.797 154.336 598.863 156.436C600.963 158.502 602.013 161.402 602.013 165.136V181.386H595.013V166.086C595.013 163.919 594.463 162.269 593.363 161.136C592.263 159.969 590.763 159.386 588.863 159.386C586.963 159.386 585.447 159.969 584.313 161.136C583.213 162.269 582.663 163.919 582.663 166.086V181.386H575.663V166.086C575.663 163.919 575.113 162.269 574.013 161.136C572.913 159.969 571.413 159.386 569.513 159.386C567.58 159.386 566.047 159.969 564.913 161.136C563.813 162.269 563.263 163.919 563.263 166.086V181.386H556.263V153.686H563.263V157.036C564.163 155.869 565.313 154.952 566.713 154.286C568.147 153.619 569.713 153.286 571.413 153.286C573.58 153.286 575.513 153.752 577.213 154.686C578.913 155.586 580.23 156.886 581.163 158.586C582.063 156.986 583.363 155.702 585.063 154.736C586.797 153.769 588.663 153.286 590.663 153.286ZM634.406 166.936C634.406 167.936 634.339 168.836 634.206 169.636H613.956C614.123 171.636 614.823 173.202 616.056 174.336C617.289 175.469 618.806 176.036 620.606 176.036C623.206 176.036 625.056 174.919 626.156 172.686H633.706C632.906 175.352 631.373 177.552 629.106 179.286C626.839 180.986 624.056 181.836 620.756 181.836C618.089 181.836 615.689 181.252 613.556 180.086C611.456 178.886 609.806 177.202 608.606 175.036C607.439 172.869 606.856 170.369 606.856 167.536C606.856 164.669 607.439 162.152 608.606 159.986C609.773 157.819 611.406 156.152 613.506 154.986C615.606 153.819 618.023 153.236 620.756 153.236C623.389 153.236 625.739 153.802 627.806 154.936C629.906 156.069 631.523 157.686 632.656 159.786C633.823 161.852 634.406 164.236 634.406 166.936ZM627.156 164.936C627.123 163.136 626.473 161.702 625.206 160.636C623.939 159.536 622.389 158.986 620.556 158.986C618.823 158.986 617.356 159.519 616.156 160.586C614.989 161.619 614.273 163.069 614.006 164.936H627.156ZM648.565 145.886L647.765 170.036H641.865L641.015 145.886H648.565ZM644.965 181.736C643.699 181.736 642.649 181.352 641.815 180.586C641.015 179.786 640.615 178.802 640.615 177.636C640.615 176.469 641.015 175.502 641.815 174.736C642.649 173.936 643.699 173.536 644.965 173.536C646.199 173.536 647.215 173.936 648.015 174.736C648.815 175.502 649.215 176.469 649.215 177.636C649.215 178.802 648.815 179.786 648.015 180.586C647.215 181.352 646.199 181.736 644.965 181.736Z" fill="black"/>
<rect x="163.854" y="508.73" width="482.677" height="125.274" rx="10" fill="#E0F36B"/>
<path d="M294.77 668.953C294.77 667.273 295.11 665.803 295.79 664.543C296.47 663.263 297.4 662.273 298.58 661.573C299.78 660.873 301.11 660.523 302.57 660.523C304.01 660.523 305.26 660.833 306.32 661.453C307.38 662.073 308.17 662.853 308.69 663.793V660.793H311.45V677.233H308.69V674.173C308.15 675.133 307.34 675.933 306.26 676.573C305.2 677.193 303.96 677.503 302.54 677.503C301.08 677.503 299.76 677.143 298.58 676.423C297.4 675.703 296.47 674.693 295.79 673.393C295.11 672.093 294.77 670.613 294.77 668.953ZM308.69 668.983C308.69 667.743 308.44 666.663 307.94 665.743C307.44 664.823 306.76 664.123 305.9 663.643C305.06 663.143 304.13 662.893 303.11 662.893C302.09 662.893 301.16 663.133 300.32 663.613C299.48 664.093 298.81 664.793 298.31 665.713C297.81 666.633 297.56 667.713 297.56 668.953C297.56 670.213 297.81 671.313 298.31 672.253C298.81 673.173 299.48 673.883 300.32 674.383C301.16 674.863 302.09 675.103 303.11 675.103C304.13 675.103 305.06 674.863 305.9 674.383C306.76 673.883 307.44 673.173 307.94 672.253C308.44 671.313 308.69 670.223 308.69 668.983ZM321.883 677.503C320.623 677.503 319.493 677.293 318.493 676.873C317.493 676.433 316.703 675.833 316.123 675.073C315.543 674.293 315.223 673.403 315.163 672.403H317.983C318.063 673.223 318.443 673.893 319.123 674.413C319.823 674.933 320.733 675.193 321.853 675.193C322.893 675.193 323.713 674.963 324.313 674.503C324.913 674.043 325.213 673.463 325.213 672.763C325.213 672.043 324.893 671.513 324.253 671.173C323.613 670.813 322.623 670.463 321.283 670.123C320.063 669.803 319.063 669.483 318.283 669.163C317.523 668.823 316.863 668.333 316.303 667.693C315.763 667.033 315.493 666.173 315.493 665.113C315.493 664.273 315.743 663.503 316.243 662.803C316.743 662.103 317.453 661.553 318.373 661.153C319.293 660.733 320.343 660.523 321.523 660.523C323.343 660.523 324.813 660.983 325.933 661.903C327.053 662.823 327.653 664.083 327.733 665.683H325.003C324.943 664.823 324.593 664.133 323.953 663.613C323.333 663.093 322.493 662.833 321.433 662.833C320.453 662.833 319.673 663.043 319.093 663.463C318.513 663.883 318.223 664.433 318.223 665.113C318.223 665.653 318.393 666.103 318.733 666.463C319.093 666.803 319.533 667.083 320.053 667.303C320.593 667.503 321.333 667.733 322.273 667.993C323.453 668.313 324.413 668.633 325.153 668.953C325.893 669.253 326.523 669.713 327.043 670.333C327.583 670.953 327.863 671.763 327.883 672.763C327.883 673.663 327.633 674.473 327.133 675.193C326.633 675.913 325.923 676.483 325.003 676.903C324.103 677.303 323.063 677.503 321.883 677.503ZM340.605 677.413C340.085 677.413 339.645 677.233 339.285 676.873C338.925 676.513 338.745 676.073 338.745 675.553C338.745 675.033 338.925 674.593 339.285 674.233C339.645 673.873 340.085 673.693 340.605 673.693C341.105 673.693 341.525 673.873 341.865 674.233C342.225 674.593 342.405 675.033 342.405 675.553C342.405 676.073 342.225 676.513 341.865 676.873C341.525 677.233 341.105 677.413 340.605 677.413ZM348.764 663.823C349.304 662.883 350.104 662.103 351.164 661.483C352.244 660.843 353.494 660.523 354.914 660.523C356.374 660.523 357.694 660.873 358.874 661.573C360.074 662.273 361.014 663.263 361.694 664.543C362.374 665.803 362.714 667.273 362.714 668.953C362.714 670.613 362.374 672.093 361.694 673.393C361.014 674.693 360.074 675.703 358.874 676.423C357.694 677.143 356.374 677.503 354.914 677.503C353.514 677.503 352.274 677.193 351.194 676.573C350.134 675.933 349.324 675.143 348.764 674.203V685.033H346.034V660.793H348.764V663.823ZM359.924 668.953C359.924 667.713 359.674 666.633 359.174 665.713C358.674 664.793 357.994 664.093 357.134 663.613C356.294 663.133 355.364 662.893 354.344 662.893C353.344 662.893 352.414 663.143 351.554 663.643C350.714 664.123 350.034 664.833 349.514 665.773C349.014 666.693 348.764 667.763 348.764 668.983C348.764 670.223 349.014 671.313 349.514 672.253C350.034 673.173 350.714 673.883 351.554 674.383C352.414 674.863 353.344 675.103 354.344 675.103C355.364 675.103 356.294 674.863 357.134 674.383C357.994 673.883 358.674 673.173 359.174 672.253C359.674 671.313 359.924 670.213 359.924 668.953ZM365.287 668.953C365.287 667.273 365.627 665.803 366.307 664.543C366.987 663.263 367.917 662.273 369.097 661.573C370.297 660.873 371.637 660.523 373.117 660.523C374.397 660.523 375.587 660.823 376.687 661.423C377.787 662.003 378.627 662.773 379.207 663.733V655.033H381.967V677.233H379.207V674.143C378.667 675.123 377.867 675.933 376.807 676.573C375.747 677.193 374.507 677.503 373.087 677.503C371.627 677.503 370.297 677.143 369.097 676.423C367.917 675.703 366.987 674.693 366.307 673.393C365.627 672.093 365.287 670.613 365.287 668.953ZM379.207 668.983C379.207 667.743 378.957 666.663 378.457 665.743C377.957 664.823 377.277 664.123 376.417 663.643C375.577 663.143 374.647 662.893 373.627 662.893C372.607 662.893 371.677 663.133 370.837 663.613C369.997 664.093 369.327 664.793 368.827 665.713C368.327 666.633 368.077 667.713 368.077 668.953C368.077 670.213 368.327 671.313 368.827 672.253C369.327 673.173 369.997 673.883 370.837 674.383C371.677 674.863 372.607 675.103 373.627 675.103C374.647 675.103 375.577 674.863 376.417 674.383C377.277 673.883 377.957 673.173 378.457 672.253C378.957 671.313 379.207 670.223 379.207 668.983ZM393.271 663.043H389.821V677.233H387.091V663.043H384.961V660.793H387.091V659.623C387.091 657.783 387.561 656.443 388.501 655.603C389.461 654.743 390.991 654.313 393.091 654.313V656.593C391.891 656.593 391.041 656.833 390.541 657.313C390.061 657.773 389.821 658.543 389.821 659.623V660.793H393.271V663.043ZM411.622 677.503C410.082 677.503 408.682 677.153 407.422 676.453C406.182 675.753 405.202 674.763 404.482 673.483C403.782 672.183 403.432 670.683 403.432 668.983C403.432 667.303 403.792 665.823 404.512 664.543C405.252 663.243 406.252 662.253 407.512 661.573C408.772 660.873 410.182 660.523 411.742 660.523C413.302 660.523 414.712 660.873 415.972 661.573C417.232 662.253 418.222 663.233 418.942 664.513C419.682 665.793 420.052 667.283 420.052 668.983C420.052 670.683 419.672 672.183 418.912 673.483C418.172 674.763 417.162 675.753 415.882 676.453C414.602 677.153 413.182 677.503 411.622 677.503ZM411.622 675.103C412.602 675.103 413.522 674.873 414.382 674.413C415.242 673.953 415.932 673.263 416.452 672.343C416.992 671.423 417.262 670.303 417.262 668.983C417.262 667.663 417.002 666.543 416.482 665.623C415.962 664.703 415.282 664.023 414.442 663.583C413.602 663.123 412.692 662.893 411.712 662.893C410.712 662.893 409.792 663.123 408.952 663.583C408.132 664.023 407.472 664.703 406.972 665.623C406.472 666.543 406.222 667.663 406.222 668.983C406.222 670.323 406.462 671.453 406.942 672.373C407.442 673.293 408.102 673.983 408.922 674.443C409.742 674.883 410.642 675.103 411.622 675.103ZM426.371 663.463C426.851 662.523 427.531 661.793 428.411 661.273C429.311 660.753 430.401 660.493 431.681 660.493V663.313H430.961C427.901 663.313 426.371 664.973 426.371 668.293V677.233H423.641V660.793H426.371V663.463ZM443.701 677.413C443.181 677.413 442.741 677.233 442.381 676.873C442.021 676.513 441.841 676.073 441.841 675.553C441.841 675.033 442.021 674.593 442.381 674.233C442.741 673.873 443.181 673.693 443.701 673.693C444.201 673.693 444.621 673.873 444.961 674.233C445.321 674.593 445.501 675.033 445.501 675.553C445.501 676.073 445.321 676.513 444.961 676.873C444.621 677.233 444.201 677.413 443.701 677.413ZM448.11 668.953C448.11 667.273 448.45 665.803 449.13 664.543C449.81 663.263 450.74 662.273 451.92 661.573C453.12 660.873 454.46 660.523 455.94 660.523C457.22 660.523 458.41 660.823 459.51 661.423C460.61 662.003 461.45 662.773 462.03 663.733V655.033H464.79V677.233H462.03V674.143C461.49 675.123 460.69 675.933 459.63 676.573C458.57 677.193 457.33 677.503 455.91 677.503C454.45 677.503 453.12 677.143 451.92 676.423C450.74 675.703 449.81 674.693 449.13 673.393C448.45 672.093 448.11 670.613 448.11 668.953ZM462.03 668.983C462.03 667.743 461.78 666.663 461.28 665.743C460.78 664.823 460.1 664.123 459.24 663.643C458.4 663.143 457.47 662.893 456.45 662.893C455.43 662.893 454.5 663.133 453.66 663.613C452.82 664.093 452.15 664.793 451.65 665.713C451.15 666.633 450.9 667.713 450.9 668.953C450.9 670.213 451.15 671.313 451.65 672.253C452.15 673.173 452.82 673.883 453.66 674.383C454.5 674.863 455.43 675.103 456.45 675.103C457.47 675.103 458.4 674.863 459.24 674.383C460.1 673.883 460.78 673.173 461.28 672.253C461.78 671.313 462.03 670.223 462.03 668.983ZM476.573 677.503C475.033 677.503 473.633 677.153 472.373 676.453C471.133 675.753 470.153 674.763 469.433 673.483C468.733 672.183 468.383 670.683 468.383 668.983C468.383 667.303 468.743 665.823 469.463 664.543C470.203 663.243 471.203 662.253 472.463 661.573C473.723 660.873 475.133 660.523 476.693 660.523C478.253 660.523 479.663 660.873 480.923 661.573C482.183 662.253 483.173 663.233 483.893 664.513C484.633 665.793 485.003 667.283 485.003 668.983C485.003 670.683 484.623 672.183 483.863 673.483C483.123 674.763 482.113 675.753 480.833 676.453C479.553 677.153 478.133 677.503 476.573 677.503ZM476.573 675.103C477.553 675.103 478.473 674.873 479.333 674.413C480.193 673.953 480.883 673.263 481.403 672.343C481.943 671.423 482.213 670.303 482.213 668.983C482.213 667.663 481.953 666.543 481.433 665.623C480.913 664.703 480.233 664.023 479.393 663.583C478.553 663.123 477.643 662.893 476.663 662.893C475.663 662.893 474.743 663.123 473.903 663.583C473.083 664.023 472.423 664.703 471.923 665.623C471.423 666.543 471.173 667.663 471.173 668.983C471.173 670.323 471.413 671.453 471.893 672.373C472.393 673.293 473.053 673.983 473.873 674.443C474.693 674.883 475.593 675.103 476.573 675.103ZM497.172 677.233L493.272 671.113L489.522 677.233H486.672L491.982 669.073L486.672 660.793H489.762L493.662 666.883L497.382 660.793H500.232L494.952 668.923L500.262 677.233H497.172Z" fill="black"/>
<path d="M199.26 551.597V568.877C199.26 570.77 199.753 572.224 200.74 573.237C201.726 574.224 203.113 574.717 204.9 574.717C206.713 574.717 208.113 574.224 209.1 573.237C210.086 572.224 210.58 570.77 210.58 568.877V551.597H216.22V568.837C216.22 571.21 215.7 573.224 214.66 574.877C213.646 576.504 212.273 577.73 210.54 578.557C208.833 579.384 206.926 579.797 204.82 579.797C202.74 579.797 200.846 579.384 199.14 578.557C197.46 577.73 196.126 576.504 195.14 574.877C194.153 573.224 193.66 571.21 193.66 568.837V551.597H199.26ZM227.23 560.557C227.95 559.544 228.937 558.704 230.19 558.037C231.47 557.344 232.924 556.997 234.55 556.997C236.444 556.997 238.15 557.464 239.67 558.397C241.217 559.33 242.43 560.664 243.31 562.397C244.217 564.104 244.67 566.09 244.67 568.357C244.67 570.624 244.217 572.637 243.31 574.397C242.43 576.13 241.217 577.477 239.67 578.437C238.15 579.397 236.444 579.877 234.55 579.877C232.924 579.877 231.484 579.544 230.23 578.877C229.004 578.21 228.004 577.37 227.23 576.357V590.077H221.63V557.357H227.23V560.557ZM238.95 568.357C238.95 567.024 238.67 565.877 238.11 564.917C237.577 563.93 236.857 563.184 235.95 562.677C235.07 562.17 234.11 561.917 233.07 561.917C232.057 561.917 231.097 562.184 230.19 562.717C229.31 563.224 228.59 563.97 228.03 564.957C227.497 565.944 227.23 567.104 227.23 568.437C227.23 569.77 227.497 570.93 228.03 571.917C228.59 572.904 229.31 573.664 230.19 574.197C231.097 574.704 232.057 574.957 233.07 574.957C234.11 574.957 235.07 574.69 235.95 574.157C236.857 573.624 237.577 572.864 238.11 571.877C238.67 570.89 238.95 569.717 238.95 568.357ZM254.34 549.917V579.517H248.74V549.917H254.34ZM269.713 579.877C267.579 579.877 265.659 579.41 263.953 578.477C262.246 577.517 260.899 576.17 259.913 574.437C258.953 572.704 258.473 570.704 258.473 568.437C258.473 566.17 258.966 564.17 259.953 562.437C260.966 560.704 262.339 559.37 264.073 558.437C265.806 557.477 267.739 556.997 269.873 556.997C272.006 556.997 273.939 557.477 275.673 558.437C277.406 559.37 278.766 560.704 279.753 562.437C280.766 564.17 281.273 566.17 281.273 568.437C281.273 570.704 280.753 572.704 279.713 574.437C278.699 576.17 277.313 577.517 275.553 578.477C273.819 579.41 271.873 579.877 269.713 579.877ZM269.713 574.997C270.726 574.997 271.673 574.757 272.553 574.277C273.459 573.77 274.179 573.024 274.713 572.037C275.246 571.05 275.513 569.85 275.513 568.437C275.513 566.33 274.953 564.717 273.833 563.597C272.739 562.45 271.393 561.877 269.793 561.877C268.193 561.877 266.846 562.45 265.753 563.597C264.686 564.717 264.153 566.33 264.153 568.437C264.153 570.544 264.673 572.17 265.713 573.317C266.779 574.437 268.113 574.997 269.713 574.997ZM283.94 568.357C283.94 566.117 284.38 564.13 285.26 562.397C286.167 560.664 287.38 559.33 288.9 558.397C290.447 557.464 292.167 556.997 294.06 556.997C295.714 556.997 297.154 557.33 298.38 557.997C299.634 558.664 300.634 559.504 301.38 560.517V557.357H307.02V579.517H301.38V576.277C300.66 577.317 299.66 578.184 298.38 578.877C297.127 579.544 295.674 579.877 294.02 579.877C292.154 579.877 290.447 579.397 288.9 578.437C287.38 577.477 286.167 576.13 285.26 574.397C284.38 572.637 283.94 570.624 283.94 568.357ZM301.38 568.437C301.38 567.077 301.114 565.917 300.58 564.957C300.047 563.97 299.327 563.224 298.42 562.717C297.514 562.184 296.54 561.917 295.5 561.917C294.46 561.917 293.5 562.17 292.62 562.677C291.74 563.184 291.02 563.93 290.46 564.917C289.927 565.877 289.66 567.024 289.66 568.357C289.66 569.69 289.927 570.864 290.46 571.877C291.02 572.864 291.74 573.624 292.62 574.157C293.527 574.69 294.487 574.957 295.5 574.957C296.54 574.957 297.514 574.704 298.42 574.197C299.327 573.664 300.047 572.917 300.58 571.957C301.114 570.97 301.38 569.797 301.38 568.437ZM311.05 568.357C311.05 566.117 311.49 564.13 312.37 562.397C313.276 560.664 314.503 559.33 316.05 558.397C317.596 557.464 319.316 556.997 321.21 556.997C322.65 556.997 324.023 557.317 325.33 557.957C326.636 558.57 327.676 559.397 328.45 560.437V549.917H334.13V579.517H328.45V576.237C327.756 577.33 326.783 578.21 325.53 578.877C324.276 579.544 322.823 579.877 321.17 579.877C319.303 579.877 317.596 579.397 316.05 578.437C314.503 577.477 313.276 576.13 312.37 574.397C311.49 572.637 311.05 570.624 311.05 568.357ZM328.49 568.437C328.49 567.077 328.223 565.917 327.69 564.957C327.156 563.97 326.436 563.224 325.53 562.717C324.623 562.184 323.65 561.917 322.61 561.917C321.57 561.917 320.61 562.17 319.73 562.677C318.85 563.184 318.13 563.93 317.57 564.917C317.036 565.877 316.77 567.024 316.77 568.357C316.77 569.69 317.036 570.864 317.57 571.877C318.13 572.864 318.85 573.624 319.73 574.157C320.636 574.69 321.596 574.957 322.61 574.957C323.65 574.957 324.623 574.704 325.53 574.197C326.436 573.664 327.156 572.917 327.69 571.957C328.223 570.97 328.49 569.797 328.49 568.437ZM370.33 557.357L356.61 589.997H350.65L355.45 578.957L346.57 557.357H352.85L358.57 572.837L364.37 557.357H370.33ZM383.189 579.877C381.056 579.877 379.136 579.41 377.429 578.477C375.722 577.517 374.376 576.17 373.389 574.437C372.429 572.704 371.949 570.704 371.949 568.437C371.949 566.17 372.442 564.17 373.429 562.437C374.442 560.704 375.816 559.37 377.549 558.437C379.282 557.477 381.216 556.997 383.349 556.997C385.482 556.997 387.416 557.477 389.149 558.437C390.882 559.37 392.242 560.704 393.229 562.437C394.242 564.17 394.749 566.17 394.749 568.437C394.749 570.704 394.229 572.704 393.189 574.437C392.176 576.17 390.789 577.517 389.029 578.477C387.296 579.41 385.349 579.877 383.189 579.877ZM383.189 574.997C384.202 574.997 385.149 574.757 386.029 574.277C386.936 573.77 387.656 573.024 388.189 572.037C388.722 571.05 388.989 569.85 388.989 568.437C388.989 566.33 388.429 564.717 387.309 563.597C386.216 562.45 384.869 561.877 383.269 561.877C381.669 561.877 380.322 562.45 379.229 563.597C378.162 564.717 377.629 566.33 377.629 568.437C377.629 570.544 378.149 572.17 379.189 573.317C380.256 574.437 381.589 574.997 383.189 574.997ZM419.777 557.357V579.517H414.137V576.717C413.417 577.677 412.47 578.437 411.297 578.997C410.15 579.53 408.897 579.797 407.537 579.797C405.804 579.797 404.27 579.437 402.937 578.717C401.604 577.97 400.55 576.89 399.777 575.477C399.03 574.037 398.657 572.33 398.657 570.357V557.357H404.257V569.557C404.257 571.317 404.697 572.677 405.577 573.637C406.457 574.57 407.657 575.037 409.177 575.037C410.724 575.037 411.937 574.57 412.817 573.637C413.697 572.677 414.137 571.317 414.137 569.557V557.357H419.777ZM430.902 560.797C431.622 559.624 432.556 558.704 433.702 558.037C434.876 557.37 436.209 557.037 437.702 557.037V562.917H436.222C434.462 562.917 433.129 563.33 432.222 564.157C431.342 564.984 430.902 566.424 430.902 568.477V579.517H425.302V557.357H430.902V560.797ZM456.605 560.797C457.325 559.624 458.259 558.704 459.405 558.037C460.579 557.37 461.912 557.037 463.405 557.037V562.917H461.925C460.165 562.917 458.832 563.33 457.925 564.157C457.045 564.984 456.605 566.424 456.605 568.477V579.517H451.005V557.357H456.605V560.797ZM487.777 567.957C487.777 568.757 487.724 569.477 487.617 570.117H471.417C471.551 571.717 472.111 572.97 473.097 573.877C474.084 574.784 475.297 575.237 476.737 575.237C478.817 575.237 480.297 574.344 481.177 572.557H487.217C486.577 574.69 485.351 576.45 483.537 577.837C481.724 579.197 479.497 579.877 476.857 579.877C474.724 579.877 472.804 579.41 471.097 578.477C469.417 577.517 468.097 576.17 467.137 574.437C466.204 572.704 465.737 570.704 465.737 568.437C465.737 566.144 466.204 564.13 467.137 562.397C468.071 560.664 469.377 559.33 471.057 558.397C472.737 557.464 474.671 556.997 476.857 556.997C478.964 556.997 480.844 557.45 482.497 558.357C484.177 559.264 485.471 560.557 486.377 562.237C487.311 563.89 487.777 565.797 487.777 567.957ZM481.977 566.357C481.951 564.917 481.431 563.77 480.417 562.917C479.404 562.037 478.164 561.597 476.697 561.597C475.311 561.597 474.137 562.024 473.177 562.877C472.244 563.704 471.671 564.864 471.457 566.357H481.977ZM500.345 579.877C498.531 579.877 496.905 579.557 495.465 578.917C494.025 578.25 492.878 577.357 492.025 576.237C491.198 575.117 490.745 573.877 490.665 572.517H496.305C496.411 573.37 496.825 574.077 497.545 574.637C498.291 575.197 499.211 575.477 500.305 575.477C501.371 575.477 502.198 575.264 502.785 574.837C503.398 574.41 503.705 573.864 503.705 573.197C503.705 572.477 503.331 571.944 502.585 571.597C501.865 571.224 500.705 570.824 499.105 570.397C497.451 569.997 496.091 569.584 495.025 569.157C493.985 568.73 493.078 568.077 492.305 567.197C491.558 566.317 491.185 565.13 491.185 563.637C491.185 562.41 491.531 561.29 492.225 560.277C492.945 559.264 493.958 558.464 495.265 557.877C496.598 557.29 498.158 556.997 499.945 556.997C502.585 556.997 504.691 557.664 506.265 558.997C507.838 560.304 508.705 562.077 508.865 564.317H503.505C503.425 563.437 503.051 562.744 502.385 562.237C501.745 561.704 500.878 561.437 499.785 561.437C498.771 561.437 497.985 561.624 497.425 561.997C496.891 562.37 496.625 562.89 496.625 563.557C496.625 564.304 496.998 564.877 497.745 565.277C498.491 565.65 499.651 566.037 501.225 566.437C502.825 566.837 504.145 567.25 505.185 567.677C506.225 568.104 507.118 568.77 507.865 569.677C508.638 570.557 509.038 571.73 509.065 573.197C509.065 574.477 508.705 575.624 507.985 576.637C507.291 577.65 506.278 578.45 504.945 579.037C503.638 579.597 502.105 579.877 500.345 579.877ZM534.582 557.357V579.517H528.942V576.717C528.222 577.677 527.275 578.437 526.102 578.997C524.955 579.53 523.702 579.797 522.342 579.797C520.608 579.797 519.075 579.437 517.742 578.717C516.408 577.97 515.355 576.89 514.582 575.477C513.835 574.037 513.462 572.33 513.462 570.357V557.357H519.062V569.557C519.062 571.317 519.502 572.677 520.382 573.637C521.262 574.57 522.462 575.037 523.982 575.037C525.528 575.037 526.742 574.57 527.622 573.637C528.502 572.677 528.942 571.317 528.942 569.557V557.357H534.582ZM567.627 557.037C570.347 557.037 572.534 557.877 574.187 559.557C575.867 561.21 576.707 563.53 576.707 566.517V579.517H571.107V567.277C571.107 565.544 570.667 564.224 569.787 563.317C568.907 562.384 567.707 561.917 566.187 561.917C564.667 561.917 563.454 562.384 562.547 563.317C561.667 564.224 561.227 565.544 561.227 567.277V579.517H555.627V567.277C555.627 565.544 555.187 564.224 554.307 563.317C553.427 562.384 552.227 561.917 550.707 561.917C549.16 561.917 547.934 562.384 547.027 563.317C546.147 564.224 545.707 565.544 545.707 567.277V579.517H540.107V557.357H545.707V560.037C546.427 559.104 547.347 558.37 548.467 557.837C549.614 557.304 550.867 557.037 552.227 557.037C553.96 557.037 555.507 557.41 556.867 558.157C558.227 558.877 559.28 559.917 560.027 561.277C560.747 559.997 561.787 558.97 563.147 558.197C564.534 557.424 566.027 557.037 567.627 557.037ZM602.621 567.957C602.621 568.757 602.568 569.477 602.461 570.117H586.261C586.394 571.717 586.954 572.97 587.941 573.877C588.928 574.784 590.141 575.237 591.581 575.237C593.661 575.237 595.141 574.344 596.021 572.557H602.061C601.421 574.69 600.194 576.45 598.381 577.837C596.568 579.197 594.341 579.877 591.701 579.877C589.568 579.877 587.648 579.41 585.941 578.477C584.261 577.517 582.941 576.17 581.981 574.437C581.048 572.704 580.581 570.704 580.581 568.437C580.581 566.144 581.048 564.13 581.981 562.397C582.914 560.664 584.221 559.33 585.901 558.397C587.581 557.464 589.514 556.997 591.701 556.997C593.808 556.997 595.688 557.45 597.341 558.357C599.021 559.264 600.314 560.557 601.221 562.237C602.154 563.89 602.621 565.797 602.621 567.957ZM596.821 566.357C596.794 564.917 596.274 563.77 595.261 562.917C594.248 562.037 593.008 561.597 591.541 561.597C590.154 561.597 588.981 562.024 588.021 562.877C587.088 563.704 586.514 564.864 586.301 566.357H596.821Z" fill="black"/>
<path fill-rule="evenodd" clip-rule="evenodd" d="M407.48 304.148C408.806 304.148 410.078 304.675 411.015 305.612L441.015 335.612C441.953 336.55 442.48 337.822 442.48 339.148V399.148C442.48 407.432 435.764 414.148 427.48 414.148H367.48C359.195 414.148 352.48 407.432 352.48 399.148V319.148C352.48 310.864 359.195 304.148 367.48 304.148H407.48ZM367.48 314.148C364.718 314.148 362.48 316.387 362.48 319.148V399.148C362.48 401.909 364.718 404.148 367.48 404.148H427.48C430.241 404.148 432.48 401.909 432.48 399.148V341.219L405.409 314.148L367.48 314.148ZM402.48 314.148H405.409L412.48 321.219V334.148H425.409L432.48 341.219V344.148H407.48C404.718 344.148 402.48 341.909 402.48 339.148V314.148ZM402.48 314.148L405.409 314.148L412.48 321.219L405.409 314.148H402.48V314.148ZM425.409 334.148L432.48 341.219V344.148V341.219L425.409 334.148L425.409 334.148ZM417.48 359.148C420.241 359.148 422.48 361.387 422.48 364.148C422.48 366.909 420.241 369.148 417.48 369.148H377.48C374.718 369.148 372.48 366.909 372.48 364.148C372.48 361.387 374.718 359.148 377.48 359.148H417.48ZM417.48 379.148C420.241 379.148 422.48 381.387 422.48 384.148C422.48 386.909 420.241 389.148 417.48 389.148H377.48C374.718 389.148 372.48 386.909 372.48 384.148C372.48 381.387 374.718 379.148 377.48 379.148H417.48ZM387.48 339.148C390.241 339.148 392.48 341.387 392.48 344.148C392.48 346.909 390.241 349.148 387.48 349.148H377.48C374.718 349.148 372.48 346.909 372.48 344.148C372.48 341.387 374.718 339.148 377.48 339.148H387.48Z" fill="#0C8CE9"/>
<rect x="807.98" y="324.739" width="692.033" height="850.077" rx="10" fill="#636E72"/>
<path d="M836.296 404.887C836.296 403.187 836.636 401.697 837.316 400.417C838.016 399.117 838.976 398.117 840.196 397.417C841.416 396.717 842.816 396.367 844.396 396.367C846.396 396.367 848.046 396.847 849.346 397.807C850.666 398.747 851.556 400.097 852.016 401.857H848.326C848.026 401.037 847.546 400.397 846.886 399.937C846.226 399.477 845.396 399.247 844.396 399.247C842.996 399.247 841.876 399.747 841.036 400.747C840.216 401.727 839.806 403.107 839.806 404.887C839.806 406.667 840.216 408.057 841.036 409.057C841.876 410.057 842.996 410.557 844.396 410.557C846.376 410.557 847.686 409.687 848.326 407.947H852.016C851.536 409.627 850.636 410.967 849.316 411.967C847.996 412.947 846.356 413.437 844.396 413.437C842.816 413.437 841.416 413.087 840.196 412.387C838.976 411.667 838.016 410.667 837.316 409.387C836.636 408.087 836.296 406.587 836.296 404.887ZM862.595 413.437C861.035 413.437 859.625 413.087 858.365 412.387C857.105 411.667 856.115 410.667 855.395 409.387C854.675 408.087 854.315 406.587 854.315 404.887C854.315 403.207 854.685 401.717 855.425 400.417C856.165 399.117 857.175 398.117 858.455 397.417C859.735 396.717 861.165 396.367 862.745 396.367C864.325 396.367 865.755 396.717 867.035 397.417C868.315 398.117 869.325 399.117 870.065 400.417C870.805 401.717 871.175 403.207 871.175 404.887C871.175 406.567 870.795 408.057 870.035 409.357C869.275 410.657 868.235 411.667 866.915 412.387C865.615 413.087 864.175 413.437 862.595 413.437ZM862.595 410.467C863.475 410.467 864.295 410.257 865.055 409.837C865.835 409.417 866.465 408.787 866.945 407.947C867.425 407.107 867.665 406.087 867.665 404.887C867.665 403.687 867.435 402.677 866.975 401.857C866.515 401.017 865.905 400.387 865.145 399.967C864.385 399.547 863.565 399.337 862.685 399.337C861.805 399.337 860.985 399.547 860.225 399.967C859.485 400.387 858.895 401.017 858.455 401.857C858.015 402.677 857.795 403.687 857.795 404.887C857.795 406.667 858.245 408.047 859.145 409.027C860.065 409.987 861.215 410.467 862.595 410.467ZM877.975 399.067C878.555 398.307 879.345 397.667 880.345 397.147C881.345 396.627 882.475 396.367 883.735 396.367C885.175 396.367 886.485 396.727 887.665 397.447C888.865 398.147 889.805 399.137 890.485 400.417C891.165 401.697 891.505 403.167 891.505 404.827C891.505 406.487 891.165 407.977 890.485 409.297C889.805 410.597 888.865 411.617 887.665 412.357C886.485 413.077 885.175 413.437 883.735 413.437C882.475 413.437 881.355 413.187 880.375 412.687C879.395 412.167 878.595 411.527 877.975 410.767V421.027H874.555V396.637H877.975V399.067ZM888.025 404.827C888.025 403.687 887.785 402.707 887.305 401.887C886.845 401.047 886.225 400.417 885.445 399.997C884.685 399.557 883.865 399.337 882.985 399.337C882.125 399.337 881.305 399.557 880.525 399.997C879.765 400.437 879.145 401.077 878.665 401.917C878.205 402.757 877.975 403.747 877.975 404.887C877.975 406.027 878.205 407.027 878.665 407.887C879.145 408.727 879.765 409.367 880.525 409.807C881.305 410.247 882.125 410.467 882.985 410.467C883.865 410.467 884.685 410.247 885.445 409.807C886.225 409.347 886.845 408.687 887.305 407.827C887.785 406.967 888.025 405.967 888.025 404.827ZM909.767 396.637L899.627 420.937H896.087L899.447 412.897L892.937 396.637H896.747L901.397 409.237L906.227 396.637H909.767ZM919.001 404.827C919.001 403.167 919.341 401.697 920.021 400.417C920.721 399.137 921.661 398.147 922.841 397.447C924.041 396.727 925.361 396.367 926.801 396.367C928.101 396.367 929.231 396.627 930.191 397.147C931.171 397.647 931.951 398.277 932.531 399.037V396.637H935.981V413.167H932.531V410.707C931.951 411.487 931.161 412.137 930.161 412.657C929.161 413.177 928.021 413.437 926.741 413.437C925.321 413.437 924.021 413.077 922.841 412.357C921.661 411.617 920.721 410.597 920.021 409.297C919.341 407.977 919.001 406.487 919.001 404.827ZM932.531 404.887C932.531 403.747 932.291 402.757 931.811 401.917C931.351 401.077 930.741 400.437 929.981 399.997C929.221 399.557 928.401 399.337 927.521 399.337C926.641 399.337 925.821 399.557 925.061 399.997C924.301 400.417 923.681 401.047 923.201 401.887C922.741 402.707 922.511 403.687 922.511 404.827C922.511 405.967 922.741 406.967 923.201 407.827C923.681 408.687 924.301 409.347 925.061 409.807C925.841 410.247 926.661 410.467 927.521 410.467C928.401 410.467 929.221 410.247 929.981 409.807C930.741 409.367 931.351 408.727 931.811 407.887C932.291 407.027 932.531 406.027 932.531 404.887ZM948.813 396.367C950.113 396.367 951.273 396.637 952.293 397.177C953.333 397.717 954.143 398.517 954.723 399.577C955.303 400.637 955.593 401.917 955.593 403.417V413.167H952.203V403.927C952.203 402.447 951.833 401.317 951.093 400.537C950.353 399.737 949.343 399.337 948.063 399.337C946.783 399.337 945.763 399.737 945.003 400.537C944.263 401.317 943.893 402.447 943.893 403.927V413.167H940.473V396.637H943.893V398.527C944.453 397.847 945.163 397.317 946.023 396.937C946.903 396.557 947.833 396.367 948.813 396.367ZM958.816 404.827C958.816 403.167 959.156 401.697 959.836 400.417C960.536 399.137 961.476 398.147 962.656 397.447C963.856 396.727 965.186 396.367 966.646 396.367C967.726 396.367 968.786 396.607 969.826 397.087C970.886 397.547 971.726 398.167 972.346 398.947V390.967H975.796V413.167H972.346V410.677C971.786 411.477 971.006 412.137 970.006 412.657C969.026 413.177 967.896 413.437 966.616 413.437C965.176 413.437 963.856 413.077 962.656 412.357C961.476 411.617 960.536 410.597 959.836 409.297C959.156 407.977 958.816 406.487 958.816 404.827ZM972.346 404.887C972.346 403.747 972.106 402.757 971.626 401.917C971.166 401.077 970.556 400.437 969.796 399.997C969.036 399.557 968.216 399.337 967.336 399.337C966.456 399.337 965.636 399.557 964.876 399.997C964.116 400.417 963.496 401.047 963.016 401.887C962.556 402.707 962.326 403.687 962.326 404.827C962.326 405.967 962.556 406.967 963.016 407.827C963.496 408.687 964.116 409.347 964.876 409.807C965.656 410.247 966.476 410.467 967.336 410.467C968.216 410.467 969.036 410.247 969.796 409.807C970.556 409.367 971.166 408.727 971.626 407.887C972.106 407.027 972.346 406.027 972.346 404.887ZM991.501 399.067C992.081 398.307 992.871 397.667 993.871 397.147C994.871 396.627 996.001 396.367 997.261 396.367C998.701 396.367 1000.01 396.727 1001.19 397.447C1002.39 398.147 1003.33 399.137 1004.01 400.417C1004.69 401.697 1005.03 403.167 1005.03 404.827C1005.03 406.487 1004.69 407.977 1004.01 409.297C1003.33 410.597 1002.39 411.617 1001.19 412.357C1000.01 413.077 998.701 413.437 997.261 413.437C996.001 413.437 994.881 413.187 993.901 412.687C992.921 412.167 992.121 411.527 991.501 410.767V421.027H988.081V396.637H991.501V399.067ZM1001.55 404.827C1001.55 403.687 1001.31 402.707 1000.83 401.887C1000.37 401.047 999.751 400.417 998.971 399.997C998.211 399.557 997.391 399.337 996.511 399.337C995.651 399.337 994.831 399.557 994.051 399.997C993.291 400.437 992.671 401.077 992.191 401.917C991.731 402.757 991.501 403.747 991.501 404.887C991.501 406.027 991.731 407.027 992.191 407.887C992.671 408.727 993.291 409.367 994.051 409.807C994.831 410.247 995.651 410.467 996.511 410.467C997.391 410.467 998.211 410.247 998.971 409.807C999.751 409.347 1000.37 408.687 1000.83 407.827C1001.31 406.967 1001.55 405.967 1001.55 404.827ZM1007.27 404.827C1007.27 403.167 1007.61 401.697 1008.29 400.417C1008.99 399.137 1009.93 398.147 1011.11 397.447C1012.31 396.727 1013.63 396.367 1015.07 396.367C1016.37 396.367 1017.5 396.627 1018.46 397.147C1019.44 397.647 1020.22 398.277 1020.8 399.037V396.637H1024.25V413.167H1020.8V410.707C1020.22 411.487 1019.43 412.137 1018.43 412.657C1017.43 413.177 1016.29 413.437 1015.01 413.437C1013.59 413.437 1012.29 413.077 1011.11 412.357C1009.93 411.617 1008.99 410.597 1008.29 409.297C1007.61 407.977 1007.27 406.487 1007.27 404.827ZM1020.8 404.887C1020.8 403.747 1020.56 402.757 1020.08 401.917C1019.62 401.077 1019.01 400.437 1018.25 399.997C1017.49 399.557 1016.67 399.337 1015.79 399.337C1014.91 399.337 1014.09 399.557 1013.33 399.997C1012.57 400.417 1011.95 401.047 1011.47 401.887C1011.01 402.707 1010.78 403.687 1010.78 404.827C1010.78 405.967 1011.01 406.967 1011.47 407.827C1011.95 408.687 1012.57 409.347 1013.33 409.807C1014.11 410.247 1014.93 410.467 1015.79 410.467C1016.67 410.467 1017.49 410.247 1018.25 409.807C1019.01 409.367 1019.62 408.727 1020.08 407.887C1020.56 407.027 1020.8 406.027 1020.8 404.887ZM1034.74 413.437C1033.44 413.437 1032.27 413.207 1031.23 412.747C1030.21 412.267 1029.4 411.627 1028.8 410.827C1028.2 410.007 1027.88 409.097 1027.84 408.097H1031.38C1031.44 408.797 1031.77 409.387 1032.37 409.867C1032.99 410.327 1033.76 410.557 1034.68 410.557C1035.64 410.557 1036.38 410.377 1036.9 410.017C1037.44 409.637 1037.71 409.157 1037.71 408.577C1037.71 407.957 1037.41 407.497 1036.81 407.197C1036.23 406.897 1035.3 406.567 1034.02 406.207C1032.78 405.867 1031.77 405.537 1030.99 405.217C1030.21 404.897 1029.53 404.407 1028.95 403.747C1028.39 403.087 1028.11 402.217 1028.11 401.137C1028.11 400.257 1028.37 399.457 1028.89 398.737C1029.41 397.997 1030.15 397.417 1031.11 396.997C1032.09 396.577 1033.21 396.367 1034.47 396.367C1036.35 396.367 1037.86 396.847 1039 397.807C1040.16 398.747 1040.78 400.037 1040.86 401.677H1037.44C1037.38 400.937 1037.08 400.347 1036.54 399.907C1036 399.467 1035.27 399.247 1034.35 399.247C1033.45 399.247 1032.76 399.417 1032.28 399.757C1031.8 400.097 1031.56 400.547 1031.56 401.107C1031.56 401.547 1031.72 401.917 1032.04 402.217C1032.36 402.517 1032.75 402.757 1033.21 402.937C1033.67 403.097 1034.35 403.307 1035.25 403.567C1036.45 403.887 1037.43 404.217 1038.19 404.557C1038.97 404.877 1039.64 405.357 1040.2 405.997C1040.76 406.637 1041.05 407.487 1041.07 408.547C1041.07 409.487 1040.81 410.327 1040.29 411.067C1039.77 411.807 1039.03 412.387 1038.07 412.807C1037.13 413.227 1036.02 413.437 1034.74 413.437ZM1048.76 399.427V408.577C1048.76 409.197 1048.9 409.647 1049.18 409.927C1049.48 410.187 1049.98 410.317 1050.68 410.317H1052.78V413.167H1050.08C1048.54 413.167 1047.36 412.807 1046.54 412.087C1045.72 411.367 1045.31 410.197 1045.31 408.577V399.427H1043.36V396.637H1045.31V392.527H1048.76V396.637H1052.78V399.427H1048.76ZM1065.47 394.447C1064.85 394.447 1064.33 394.237 1063.91 393.817C1063.49 393.397 1063.28 392.877 1063.28 392.257C1063.28 391.637 1063.49 391.117 1063.91 390.697C1064.33 390.277 1064.85 390.067 1065.47 390.067C1066.07 390.067 1066.58 390.277 1067 390.697C1067.42 391.117 1067.63 391.637 1067.63 392.257C1067.63 392.877 1067.42 393.397 1067 393.817C1066.58 394.237 1066.07 394.447 1065.47 394.447ZM1067.15 416.407C1067.15 418.027 1066.74 419.197 1065.92 419.917C1065.12 420.657 1063.95 421.027 1062.41 421.027H1060.64V418.147H1061.81C1062.51 418.147 1063 418.007 1063.28 417.727C1063.58 417.467 1063.73 417.027 1063.73 416.407V396.637H1067.15V416.407ZM1078.81 413.437C1077.25 413.437 1075.84 413.087 1074.58 412.387C1073.32 411.667 1072.33 410.667 1071.61 409.387C1070.89 408.087 1070.53 406.587 1070.53 404.887C1070.53 403.207 1070.9 401.717 1071.64 400.417C1072.38 399.117 1073.39 398.117 1074.67 397.417C1075.95 396.717 1077.38 396.367 1078.96 396.367C1080.54 396.367 1081.97 396.717 1083.25 397.417C1084.53 398.117 1085.54 399.117 1086.28 400.417C1087.02 401.717 1087.39 403.207 1087.39 404.887C1087.39 406.567 1087.01 408.057 1086.25 409.357C1085.49 410.657 1084.45 411.667 1083.13 412.387C1081.83 413.087 1080.39 413.437 1078.81 413.437ZM1078.81 410.467C1079.69 410.467 1080.51 410.257 1081.27 409.837C1082.05 409.417 1082.68 408.787 1083.16 407.947C1083.64 407.107 1083.88 406.087 1083.88 404.887C1083.88 403.687 1083.65 402.677 1083.19 401.857C1082.73 401.017 1082.12 400.387 1081.36 399.967C1080.6 399.547 1079.78 399.337 1078.9 399.337C1078.02 399.337 1077.2 399.547 1076.44 399.967C1075.7 400.387 1075.11 401.017 1074.67 401.857C1074.23 402.677 1074.01 403.687 1074.01 404.887C1074.01 406.667 1074.46 408.047 1075.36 409.027C1076.28 409.987 1077.43 410.467 1078.81 410.467ZM1094.19 399.097C1094.77 398.297 1095.56 397.647 1096.56 397.147C1097.58 396.627 1098.71 396.367 1099.95 396.367C1101.41 396.367 1102.73 396.717 1103.91 397.417C1105.09 398.117 1106.02 399.117 1106.7 400.417C1107.38 401.697 1107.72 403.167 1107.72 404.827C1107.72 406.487 1107.38 407.977 1106.7 409.297C1106.02 410.597 1105.08 411.617 1103.88 412.357C1102.7 413.077 1101.39 413.437 1099.95 413.437C1098.67 413.437 1097.53 413.187 1096.53 412.687C1095.55 412.187 1094.77 411.547 1094.19 410.767V413.167H1090.77V390.967H1094.19V399.097ZM1104.24 404.827C1104.24 403.687 1104 402.707 1103.52 401.887C1103.06 401.047 1102.44 400.417 1101.66 399.997C1100.9 399.557 1100.08 399.337 1099.2 399.337C1098.34 399.337 1097.52 399.557 1096.74 399.997C1095.98 400.437 1095.36 401.077 1094.88 401.917C1094.42 402.757 1094.19 403.747 1094.19 404.887C1094.19 406.027 1094.42 407.027 1094.88 407.887C1095.36 408.727 1095.98 409.367 1096.74 409.807C1097.52 410.247 1098.34 410.467 1099.2 410.467C1100.08 410.467 1100.9 410.247 1101.66 409.807C1102.44 409.347 1103.06 408.687 1103.52 407.827C1104 406.967 1104.24 405.967 1104.24 404.827ZM1117.75 404.827C1117.75 403.167 1118.09 401.697 1118.77 400.417C1119.47 399.137 1120.41 398.147 1121.59 397.447C1122.79 396.727 1124.12 396.367 1125.58 396.367C1126.66 396.367 1127.72 396.607 1128.76 397.087C1129.82 397.547 1130.66 398.167 1131.28 398.947V390.967H1134.73V413.167H1131.28V410.677C1130.72 411.477 1129.94 412.137 1128.94 412.657C1127.96 413.177 1126.83 413.437 1125.55 413.437C1124.11 413.437 1122.79 413.077 1121.59 412.357C1120.41 411.617 1119.47 410.597 1118.77 409.297C1118.09 407.977 1117.75 406.487 1117.75 404.827ZM1131.28 404.887C1131.28 403.747 1131.04 402.757 1130.56 401.917C1130.1 401.077 1129.49 400.437 1128.73 399.997C1127.97 399.557 1127.15 399.337 1126.27 399.337C1125.39 399.337 1124.57 399.557 1123.81 399.997C1123.05 400.417 1122.43 401.047 1121.95 401.887C1121.49 402.707 1121.26 403.687 1121.26 404.827C1121.26 405.967 1121.49 406.967 1121.95 407.827C1122.43 408.687 1123.05 409.347 1123.81 409.807C1124.59 410.247 1125.41 410.467 1126.27 410.467C1127.15 410.467 1127.97 410.247 1128.73 409.807C1129.49 409.367 1130.1 408.727 1130.56 407.887C1131.04 407.027 1131.28 406.027 1131.28 404.887ZM1154.37 404.497C1154.37 405.117 1154.33 405.677 1154.25 406.177H1141.62C1141.72 407.497 1142.21 408.557 1143.09 409.357C1143.97 410.157 1145.05 410.557 1146.33 410.557C1148.17 410.557 1149.47 409.787 1150.23 408.247H1153.92C1153.42 409.767 1152.51 411.017 1151.19 411.997C1149.89 412.957 1148.27 413.437 1146.33 413.437C1144.75 413.437 1143.33 413.087 1142.07 412.387C1140.83 411.667 1139.85 410.667 1139.13 409.387C1138.43 408.087 1138.08 406.587 1138.08 404.887C1138.08 403.187 1138.42 401.697 1139.1 400.417C1139.8 399.117 1140.77 398.117 1142.01 397.417C1143.27 396.717 1144.71 396.367 1146.33 396.367C1147.89 396.367 1149.28 396.707 1150.5 397.387C1151.72 398.067 1152.67 399.027 1153.35 400.267C1154.03 401.487 1154.37 402.897 1154.37 404.497ZM1150.8 403.417C1150.78 402.157 1150.33 401.147 1149.45 400.387C1148.57 399.627 1147.48 399.247 1146.18 399.247C1145 399.247 1143.99 399.627 1143.15 400.387C1142.31 401.127 1141.81 402.137 1141.65 403.417H1150.8ZM1163.74 413.437C1162.44 413.437 1161.27 413.207 1160.23 412.747C1159.21 412.267 1158.4 411.627 1157.8 410.827C1157.2 410.007 1156.88 409.097 1156.84 408.097H1160.38C1160.44 408.797 1160.77 409.387 1161.37 409.867C1161.99 410.327 1162.76 410.557 1163.68 410.557C1164.64 410.557 1165.38 410.377 1165.9 410.017C1166.44 409.637 1166.71 409.157 1166.71 408.577C1166.71 407.957 1166.41 407.497 1165.81 407.197C1165.23 406.897 1164.3 406.567 1163.02 406.207C1161.78 405.867 1160.77 405.537 1159.99 405.217C1159.21 404.897 1158.53 404.407 1157.95 403.747C1157.39 403.087 1157.11 402.217 1157.11 401.137C1157.11 400.257 1157.37 399.457 1157.89 398.737C1158.41 397.997 1159.15 397.417 1160.11 396.997C1161.09 396.577 1162.21 396.367 1163.47 396.367C1165.35 396.367 1166.86 396.847 1168 397.807C1169.16 398.747 1169.78 400.037 1169.86 401.677H1166.44C1166.38 400.937 1166.08 400.347 1165.54 399.907C1165 399.467 1164.27 399.247 1163.35 399.247C1162.45 399.247 1161.76 399.417 1161.28 399.757C1160.8 400.097 1160.56 400.547 1160.56 401.107C1160.56 401.547 1160.72 401.917 1161.04 402.217C1161.36 402.517 1161.75 402.757 1162.21 402.937C1162.67 403.097 1163.35 403.307 1164.25 403.567C1165.45 403.887 1166.43 404.217 1167.19 404.557C1167.97 404.877 1168.64 405.357 1169.2 405.997C1169.76 406.637 1170.05 407.487 1170.07 408.547C1170.07 409.487 1169.81 410.327 1169.29 411.067C1168.77 411.807 1168.03 412.387 1167.07 412.807C1166.13 413.227 1165.02 413.437 1163.74 413.437ZM1172.62 404.887C1172.62 403.187 1172.96 401.697 1173.64 400.417C1174.34 399.117 1175.3 398.117 1176.52 397.417C1177.74 396.717 1179.14 396.367 1180.72 396.367C1182.72 396.367 1184.37 396.847 1185.67 397.807C1186.99 398.747 1187.88 400.097 1188.34 401.857H1184.65C1184.35 401.037 1183.87 400.397 1183.21 399.937C1182.55 399.477 1181.72 399.247 1180.72 399.247C1179.32 399.247 1178.2 399.747 1177.36 400.747C1176.54 401.727 1176.13 403.107 1176.13 404.887C1176.13 406.667 1176.54 408.057 1177.36 409.057C1178.2 410.057 1179.32 410.557 1180.72 410.557C1182.7 410.557 1184.01 409.687 1184.65 407.947H1188.34C1187.86 409.627 1186.96 410.967 1185.64 411.967C1184.32 412.947 1182.68 413.437 1180.72 413.437C1179.14 413.437 1177.74 413.087 1176.52 412.387C1175.3 411.667 1174.34 410.667 1173.64 409.387C1172.96 408.087 1172.62 406.587 1172.62 404.887ZM1195.17 399.037C1195.67 398.197 1196.33 397.547 1197.15 397.087C1197.99 396.607 1198.98 396.367 1200.12 396.367V399.907H1199.25C1197.91 399.907 1196.89 400.247 1196.19 400.927C1195.51 401.607 1195.17 402.787 1195.17 404.467V413.167H1191.75V396.637H1195.17V399.037ZM1205.01 394.447C1204.39 394.447 1203.87 394.237 1203.45 393.817C1203.03 393.397 1202.82 392.877 1202.82 392.257C1202.82 391.637 1203.03 391.117 1203.45 390.697C1203.87 390.277 1204.39 390.067 1205.01 390.067C1205.61 390.067 1206.12 390.277 1206.54 390.697C1206.96 391.117 1207.17 391.637 1207.17 392.257C1207.17 392.877 1206.96 393.397 1206.54 393.817C1206.12 394.237 1205.61 394.447 1205.01 394.447ZM1206.69 396.637V413.167H1203.27V396.637H1206.69ZM1214.6 399.067C1215.18 398.307 1215.97 397.667 1216.97 397.147C1217.97 396.627 1219.1 396.367 1220.36 396.367C1221.8 396.367 1223.11 396.727 1224.29 397.447C1225.49 398.147 1226.43 399.137 1227.11 400.417C1227.79 401.697 1228.13 403.167 1228.13 404.827C1228.13 406.487 1227.79 407.977 1227.11 409.297C1226.43 410.597 1225.49 411.617 1224.29 412.357C1223.11 413.077 1221.8 413.437 1220.36 413.437C1219.1 413.437 1217.98 413.187 1217 412.687C1216.02 412.167 1215.22 411.527 1214.6 410.767V421.027H1211.18V396.637H1214.6V399.067ZM1224.65 404.827C1224.65 403.687 1224.41 402.707 1223.93 401.887C1223.47 401.047 1222.85 400.417 1222.07 399.997C1221.31 399.557 1220.49 399.337 1219.61 399.337C1218.75 399.337 1217.93 399.557 1217.15 399.997C1216.39 400.437 1215.77 401.077 1215.29 401.917C1214.83 402.757 1214.6 403.747 1214.6 404.887C1214.6 406.027 1214.83 407.027 1215.29 407.887C1215.77 408.727 1216.39 409.367 1217.15 409.807C1217.93 410.247 1218.75 410.467 1219.61 410.467C1220.49 410.467 1221.31 410.247 1222.07 409.807C1222.85 409.347 1223.47 408.687 1223.93 407.827C1224.41 406.967 1224.65 405.967 1224.65 404.827ZM1235.5 399.427V408.577C1235.5 409.197 1235.64 409.647 1235.92 409.927C1236.22 410.187 1236.72 410.317 1237.42 410.317H1239.52V413.167H1236.82C1235.28 413.167 1234.1 412.807 1233.28 412.087C1232.46 411.367 1232.05 410.197 1232.05 408.577V399.427H1230.1V396.637H1232.05V392.527H1235.5V396.637H1239.52V399.427H1235.5ZM1244.41 394.447C1243.79 394.447 1243.27 394.237 1242.85 393.817C1242.43 393.397 1242.22 392.877 1242.22 392.257C1242.22 391.637 1242.43 391.117 1242.85 390.697C1243.27 390.277 1243.79 390.067 1244.41 390.067C1245.01 390.067 1245.52 390.277 1245.94 390.697C1246.36 391.117 1246.57 391.637 1246.57 392.257C1246.57 392.877 1246.36 393.397 1245.94 393.817C1245.52 394.237 1245.01 394.447 1244.41 394.447ZM1246.09 396.637V413.167H1242.67V396.637H1246.09ZM1257.75 413.437C1256.19 413.437 1254.78 413.087 1253.52 412.387C1252.26 411.667 1251.27 410.667 1250.55 409.387C1249.83 408.087 1249.47 406.587 1249.47 404.887C1249.47 403.207 1249.84 401.717 1250.58 400.417C1251.32 399.117 1252.33 398.117 1253.61 397.417C1254.89 396.717 1256.32 396.367 1257.9 396.367C1259.48 396.367 1260.91 396.717 1262.19 397.417C1263.47 398.117 1264.48 399.117 1265.22 400.417C1265.96 401.717 1266.33 403.207 1266.33 404.887C1266.33 406.567 1265.95 408.057 1265.19 409.357C1264.43 410.657 1263.39 411.667 1262.07 412.387C1260.77 413.087 1259.33 413.437 1257.75 413.437ZM1257.75 410.467C1258.63 410.467 1259.45 410.257 1260.21 409.837C1260.99 409.417 1261.62 408.787 1262.1 407.947C1262.58 407.107 1262.82 406.087 1262.82 404.887C1262.82 403.687 1262.59 402.677 1262.13 401.857C1261.67 401.017 1261.06 400.387 1260.3 399.967C1259.54 399.547 1258.72 399.337 1257.84 399.337C1256.96 399.337 1256.14 399.547 1255.38 399.967C1254.64 400.387 1254.05 401.017 1253.61 401.857C1253.17 402.677 1252.95 403.687 1252.95 404.887C1252.95 406.667 1253.4 408.047 1254.3 409.027C1255.22 409.987 1256.37 410.467 1257.75 410.467ZM1278.05 396.367C1279.35 396.367 1280.51 396.637 1281.53 397.177C1282.57 397.717 1283.38 398.517 1283.96 399.577C1284.54 400.637 1284.83 401.917 1284.83 403.417V413.167H1281.44V403.927C1281.44 402.447 1281.07 401.317 1280.33 400.537C1279.59 399.737 1278.58 399.337 1277.3 399.337C1276.02 399.337 1275 399.737 1274.24 400.537C1273.5 401.317 1273.13 402.447 1273.13 403.927V413.167H1269.71V396.637H1273.13V398.527C1273.69 397.847 1274.4 397.317 1275.26 396.937C1276.14 396.557 1277.07 396.367 1278.05 396.367ZM1290.57 413.377C1289.95 413.377 1289.43 413.167 1289.01 412.747C1288.59 412.327 1288.38 411.807 1288.38 411.187C1288.38 410.567 1288.59 410.047 1289.01 409.627C1289.43 409.207 1289.95 408.997 1290.57 408.997C1291.17 408.997 1291.68 409.207 1292.1 409.627C1292.52 410.047 1292.73 410.567 1292.73 411.187C1292.73 411.807 1292.52 412.327 1292.1 412.747C1291.68 413.167 1291.17 413.377 1290.57 413.377ZM1297.81 413.377C1297.19 413.377 1296.67 413.167 1296.25 412.747C1295.83 412.327 1295.62 411.807 1295.62 411.187C1295.62 410.567 1295.83 410.047 1296.25 409.627C1296.67 409.207 1297.19 408.997 1297.81 408.997C1298.41 408.997 1298.92 409.207 1299.34 409.627C1299.76 410.047 1299.97 410.567 1299.97 411.187C1299.97 411.807 1299.76 412.327 1299.34 412.747C1298.92 413.167 1298.41 413.377 1297.81 413.377ZM1305.05 413.377C1304.43 413.377 1303.91 413.167 1303.49 412.747C1303.07 412.327 1302.86 411.807 1302.86 411.187C1302.86 410.567 1303.07 410.047 1303.49 409.627C1303.91 409.207 1304.43 408.997 1305.05 408.997C1305.65 408.997 1306.16 409.207 1306.58 409.627C1307 410.047 1307.21 410.567 1307.21 411.187C1307.21 411.807 1307 412.327 1306.58 412.747C1306.16 413.167 1305.65 413.377 1305.05 413.377Z" fill="white"/>
<path d="M827.02 280.819V300.419C827.02 303.139 826.233 305.259 824.66 306.779C823.086 308.273 820.98 309.019 818.34 309.019C815.673 309.019 813.513 308.246 811.86 306.699C810.233 305.153 809.42 302.993 809.42 300.219H815.02C815.046 301.419 815.326 302.353 815.86 303.019C816.42 303.686 817.22 304.019 818.26 304.019C819.273 304.019 820.046 303.699 820.58 303.059C821.113 302.419 821.38 301.539 821.38 300.419V280.819H827.02ZM843.392 309.099C841.259 309.099 839.339 308.633 837.632 307.699C835.926 306.739 834.579 305.393 833.592 303.659C832.632 301.926 832.152 299.926 832.152 297.659C832.152 295.393 832.646 293.393 833.632 291.659C834.646 289.926 836.019 288.593 837.752 287.659C839.486 286.699 841.419 286.219 843.552 286.219C845.686 286.219 847.619 286.699 849.352 287.659C851.086 288.593 852.446 289.926 853.432 291.659C854.446 293.393 854.952 295.393 854.952 297.659C854.952 299.926 854.432 301.926 853.392 303.659C852.379 305.393 850.992 306.739 849.232 307.699C847.499 308.633 845.552 309.099 843.392 309.099ZM843.392 304.219C844.406 304.219 845.352 303.979 846.232 303.499C847.139 302.993 847.859 302.246 848.392 301.259C848.926 300.273 849.192 299.073 849.192 297.659C849.192 295.553 848.632 293.939 847.512 292.819C846.419 291.673 845.072 291.099 843.472 291.099C841.872 291.099 840.526 291.673 839.432 292.819C838.366 293.939 837.832 295.553 837.832 297.659C837.832 299.766 838.352 301.393 839.392 302.539C840.459 303.659 841.792 304.219 843.392 304.219ZM864.66 289.819C865.38 288.753 866.367 287.886 867.62 287.219C868.9 286.553 870.353 286.219 871.98 286.219C873.873 286.219 875.58 286.686 877.1 287.619C878.647 288.553 879.86 289.886 880.74 291.619C881.647 293.326 882.1 295.313 882.1 297.579C882.1 299.846 881.647 301.859 880.74 303.619C879.86 305.353 878.647 306.699 877.1 307.659C875.58 308.619 873.873 309.099 871.98 309.099C870.327 309.099 868.873 308.779 867.62 308.139C866.393 307.473 865.407 306.619 864.66 305.579V308.739H859.06V279.139H864.66V289.819ZM876.38 297.579C876.38 296.246 876.1 295.099 875.54 294.139C875.007 293.153 874.287 292.406 873.38 291.899C872.5 291.393 871.54 291.139 870.5 291.139C869.487 291.139 868.527 291.406 867.62 291.939C866.74 292.446 866.02 293.193 865.46 294.179C864.927 295.166 864.66 296.326 864.66 297.659C864.66 298.993 864.927 300.153 865.46 301.139C866.02 302.126 866.74 302.886 867.62 303.419C868.527 303.926 869.487 304.179 870.5 304.179C871.54 304.179 872.5 303.913 873.38 303.379C874.287 302.846 875.007 302.086 875.54 301.099C876.1 300.113 876.38 298.939 876.38 297.579ZM905.461 280.819C908.394 280.819 910.967 281.393 913.181 282.539C915.421 283.686 917.141 285.326 918.341 287.459C919.567 289.566 920.181 292.019 920.181 294.819C920.181 297.619 919.567 300.073 918.341 302.179C917.141 304.259 915.421 305.873 913.181 307.019C910.967 308.166 908.394 308.739 905.461 308.739H895.701V280.819H905.461ZM905.261 303.979C908.194 303.979 910.461 303.179 912.061 301.579C913.661 299.979 914.461 297.726 914.461 294.819C914.461 291.913 913.661 289.646 912.061 288.019C910.461 286.366 908.194 285.539 905.261 285.539H901.301V303.979H905.261ZM944.973 297.179C944.973 297.979 944.919 298.699 944.813 299.339H928.613C928.746 300.939 929.306 302.193 930.293 303.099C931.279 304.006 932.493 304.459 933.933 304.459C936.013 304.459 937.493 303.566 938.373 301.779H944.413C943.773 303.913 942.546 305.673 940.733 307.059C938.919 308.419 936.693 309.099 934.053 309.099C931.919 309.099 929.999 308.633 928.293 307.699C926.613 306.739 925.293 305.393 924.333 303.659C923.399 301.926 922.933 299.926 922.933 297.659C922.933 295.366 923.399 293.353 924.333 291.619C925.266 289.886 926.573 288.553 928.253 287.619C929.933 286.686 931.866 286.219 934.053 286.219C936.159 286.219 938.039 286.673 939.693 287.579C941.373 288.486 942.666 289.779 943.573 291.459C944.506 293.113 944.973 295.019 944.973 297.179ZM939.173 295.579C939.146 294.139 938.626 292.993 937.613 292.139C936.599 291.259 935.359 290.819 933.893 290.819C932.506 290.819 931.333 291.246 930.373 292.099C929.439 292.926 928.866 294.086 928.653 295.579H939.173ZM957.54 309.099C955.727 309.099 954.1 308.779 952.66 308.139C951.22 307.473 950.073 306.579 949.22 305.459C948.393 304.339 947.94 303.099 947.86 301.739H953.5C953.607 302.593 954.02 303.299 954.74 303.859C955.487 304.419 956.407 304.699 957.5 304.699C958.567 304.699 959.393 304.486 959.98 304.059C960.593 303.633 960.9 303.086 960.9 302.419C960.9 301.699 960.527 301.166 959.78 300.819C959.06 300.446 957.9 300.046 956.3 299.619C954.647 299.219 953.287 298.806 952.22 298.379C951.18 297.953 950.273 297.299 949.5 296.419C948.753 295.539 948.38 294.353 948.38 292.859C948.38 291.633 948.727 290.513 949.42 289.499C950.14 288.486 951.153 287.686 952.46 287.099C953.793 286.513 955.353 286.219 957.14 286.219C959.78 286.219 961.887 286.886 963.46 288.219C965.033 289.526 965.9 291.299 966.06 293.539H960.7C960.62 292.659 960.247 291.966 959.58 291.459C958.94 290.926 958.073 290.659 956.98 290.659C955.967 290.659 955.18 290.846 954.62 291.219C954.087 291.593 953.82 292.113 953.82 292.779C953.82 293.526 954.193 294.099 954.94 294.499C955.687 294.873 956.847 295.259 958.42 295.659C960.02 296.059 961.34 296.473 962.38 296.899C963.42 297.326 964.313 297.993 965.06 298.899C965.833 299.779 966.233 300.953 966.26 302.419C966.26 303.699 965.9 304.846 965.18 305.859C964.487 306.873 963.473 307.673 962.14 308.259C960.833 308.819 959.3 309.099 957.54 309.099ZM969.417 297.659C969.417 295.366 969.884 293.366 970.817 291.659C971.75 289.926 973.044 288.593 974.697 287.659C976.35 286.699 978.244 286.219 980.377 286.219C983.124 286.219 985.39 286.913 987.177 288.299C988.99 289.659 990.204 291.579 990.817 294.059H984.777C984.457 293.099 983.91 292.353 983.137 291.819C982.39 291.259 981.457 290.979 980.337 290.979C978.737 290.979 977.47 291.566 976.537 292.739C975.604 293.886 975.137 295.526 975.137 297.659C975.137 299.766 975.604 301.406 976.537 302.579C977.47 303.726 978.737 304.299 980.337 304.299C982.604 304.299 984.084 303.286 984.777 301.259H990.817C990.204 303.659 988.99 305.566 987.177 306.979C985.364 308.393 983.097 309.099 980.377 309.099C978.244 309.099 976.35 308.633 974.697 307.699C973.044 306.739 971.75 305.406 970.817 303.699C969.884 301.966 969.417 299.953 969.417 297.659ZM1000.52 290.019C1001.24 288.846 1002.17 287.926 1003.32 287.259C1004.49 286.593 1005.83 286.259 1007.32 286.259V292.139H1005.84C1004.08 292.139 1002.75 292.553 1001.84 293.379C1000.96 294.206 1000.52 295.646 1000.52 297.699V308.739H994.919V286.579H1000.52V290.019ZM1013.93 283.939C1012.94 283.939 1012.12 283.633 1011.45 283.019C1010.81 282.379 1010.49 281.593 1010.49 280.659C1010.49 279.726 1010.81 278.953 1011.45 278.339C1012.12 277.699 1012.94 277.379 1013.93 277.379C1014.92 277.379 1015.73 277.699 1016.37 278.339C1017.04 278.953 1017.37 279.726 1017.37 280.659C1017.37 281.593 1017.04 282.379 1016.37 283.019C1015.73 283.633 1014.92 283.939 1013.93 283.939ZM1016.69 286.579V308.739H1011.09V286.579H1016.69ZM1027.82 289.779C1028.54 288.766 1029.53 287.926 1030.78 287.259C1032.06 286.566 1033.52 286.219 1035.14 286.219C1037.04 286.219 1038.74 286.686 1040.26 287.619C1041.81 288.553 1043.02 289.886 1043.9 291.619C1044.81 293.326 1045.26 295.313 1045.26 297.579C1045.26 299.846 1044.81 301.859 1043.9 303.619C1043.02 305.353 1041.81 306.699 1040.26 307.659C1038.74 308.619 1037.04 309.099 1035.14 309.099C1033.52 309.099 1032.08 308.766 1030.82 308.099C1029.6 307.433 1028.6 306.593 1027.82 305.579V319.299H1022.22V286.579H1027.82V289.779ZM1039.54 297.579C1039.54 296.246 1039.26 295.099 1038.7 294.139C1038.17 293.153 1037.45 292.406 1036.54 291.899C1035.66 291.393 1034.7 291.139 1033.66 291.139C1032.65 291.139 1031.69 291.406 1030.78 291.939C1029.9 292.446 1029.18 293.193 1028.62 294.179C1028.09 295.166 1027.82 296.326 1027.82 297.659C1027.82 298.993 1028.09 300.153 1028.62 301.139C1029.18 302.126 1029.9 302.886 1030.78 303.419C1031.69 303.926 1032.65 304.179 1033.66 304.179C1034.7 304.179 1035.66 303.913 1036.54 303.379C1037.45 302.846 1038.17 302.086 1038.7 301.099C1039.26 300.113 1039.54 298.939 1039.54 297.579ZM1055.85 291.179V301.899C1055.85 302.646 1056.03 303.193 1056.37 303.539C1056.75 303.859 1057.36 304.019 1058.21 304.019H1060.81V308.739H1057.29C1052.57 308.739 1050.21 306.446 1050.21 301.859V291.179H1047.57V286.579H1050.21V281.099H1055.85V286.579H1060.81V291.179H1055.85ZM1067.68 283.939C1066.69 283.939 1065.87 283.633 1065.2 283.019C1064.56 282.379 1064.24 281.593 1064.24 280.659C1064.24 279.726 1064.56 278.953 1065.2 278.339C1065.87 277.699 1066.69 277.379 1067.68 277.379C1068.67 277.379 1069.48 277.699 1070.12 278.339C1070.79 278.953 1071.12 279.726 1071.12 280.659C1071.12 281.593 1070.79 282.379 1070.12 283.019C1069.48 283.633 1068.67 283.939 1067.68 283.939ZM1070.44 286.579V308.739H1064.84V286.579H1070.44ZM1085.81 309.099C1083.68 309.099 1081.76 308.633 1080.05 307.699C1078.35 306.739 1077 305.393 1076.01 303.659C1075.05 301.926 1074.57 299.926 1074.57 297.659C1074.57 295.393 1075.07 293.393 1076.05 291.659C1077.07 289.926 1078.44 288.593 1080.17 287.659C1081.91 286.699 1083.84 286.219 1085.97 286.219C1088.11 286.219 1090.04 286.699 1091.77 287.659C1093.51 288.593 1094.87 289.926 1095.85 291.659C1096.87 293.393 1097.37 295.393 1097.37 297.659C1097.37 299.926 1096.85 301.926 1095.81 303.659C1094.8 305.393 1093.41 306.739 1091.65 307.699C1089.92 308.633 1087.97 309.099 1085.81 309.099ZM1085.81 304.219C1086.83 304.219 1087.77 303.979 1088.65 303.499C1089.56 302.993 1090.28 302.246 1090.81 301.259C1091.35 300.273 1091.61 299.073 1091.61 297.659C1091.61 295.553 1091.05 293.939 1089.93 292.819C1088.84 291.673 1087.49 291.099 1085.89 291.099C1084.29 291.099 1082.95 291.673 1081.85 292.819C1080.79 293.939 1080.25 295.553 1080.25 297.659C1080.25 299.766 1080.77 301.393 1081.81 302.539C1082.88 303.659 1084.21 304.219 1085.81 304.219ZM1113.76 286.259C1116.4 286.259 1118.54 287.099 1120.16 288.779C1121.79 290.433 1122.6 292.753 1122.6 295.739V308.739H1117V296.499C1117 294.739 1116.56 293.393 1115.68 292.459C1114.8 291.499 1113.6 291.019 1112.08 291.019C1110.54 291.019 1109.31 291.499 1108.4 292.459C1107.52 293.393 1107.08 294.739 1107.08 296.499V308.739H1101.48V286.579H1107.08V289.339C1107.83 288.379 1108.78 287.633 1109.92 287.099C1111.1 286.539 1112.38 286.259 1113.76 286.259Z" fill="black"/>
<rect x="521.441" y="1212.1" width="482.677" height="125.274" rx="10" fill="#0C8CE9"/>
<path d="M692.586 1288.22C690.396 1288.22 688.416 1287.84 686.646 1287.09C684.906 1286.34 683.526 1285.26 682.506 1283.85C681.486 1282.44 680.961 1280.78 680.931 1278.86H687.681C687.771 1280.15 688.221 1281.17 689.031 1281.92C689.871 1282.67 691.011 1283.04 692.451 1283.04C693.921 1283.04 695.076 1282.7 695.916 1282.01C696.756 1281.29 697.176 1280.36 697.176 1279.22C697.176 1278.29 696.891 1277.52 696.321 1276.92C695.751 1276.32 695.031 1275.86 694.161 1275.53C693.321 1275.17 692.151 1274.78 690.651 1274.36C688.611 1273.76 686.946 1273.17 685.656 1272.6C684.396 1272 683.301 1271.12 682.371 1269.95C681.471 1268.75 681.021 1267.16 681.021 1265.18C681.021 1263.32 681.486 1261.7 682.416 1260.32C683.346 1258.94 684.651 1257.89 686.331 1257.17C688.011 1256.42 689.931 1256.04 692.091 1256.04C695.331 1256.04 697.956 1256.84 699.966 1258.43C702.006 1259.99 703.131 1262.18 703.341 1265H696.411C696.351 1263.92 695.886 1263.03 695.016 1262.34C694.176 1261.62 693.051 1261.26 691.641 1261.26C690.411 1261.26 689.421 1261.58 688.671 1262.21C687.951 1262.84 687.591 1263.75 687.591 1264.95C687.591 1265.79 687.861 1266.5 688.401 1267.07C688.971 1267.61 689.661 1268.06 690.471 1268.42C691.311 1268.75 692.481 1269.14 693.981 1269.59C696.021 1270.19 697.686 1270.79 698.976 1271.39C700.266 1271.99 701.376 1272.89 702.306 1274.09C703.236 1275.29 703.701 1276.86 703.701 1278.81C703.701 1280.49 703.266 1282.05 702.396 1283.49C701.526 1284.93 700.251 1286.09 698.571 1286.96C696.891 1287.8 694.896 1288.22 692.586 1288.22ZM732.698 1262.97V1287.9H726.353V1284.75C725.543 1285.83 724.478 1286.69 723.158 1287.32C721.868 1287.92 720.458 1288.22 718.928 1288.22C716.978 1288.22 715.253 1287.81 713.753 1287C712.253 1286.16 711.068 1284.95 710.198 1283.36C709.358 1281.74 708.938 1279.82 708.938 1277.6V1262.97H715.238V1276.7C715.238 1278.68 715.733 1280.21 716.723 1281.29C717.713 1282.34 719.063 1282.86 720.773 1282.86C722.513 1282.86 723.878 1282.34 724.868 1281.29C725.858 1280.21 726.353 1278.68 726.353 1276.7V1262.97H732.698ZM745.214 1266.62C746.024 1265.42 747.134 1264.44 748.544 1263.69C749.984 1262.94 751.619 1262.57 753.449 1262.57C755.579 1262.57 757.499 1263.09 759.209 1264.14C760.949 1265.19 762.314 1266.69 763.304 1268.64C764.324 1270.56 764.834 1272.8 764.834 1275.35C764.834 1277.9 764.324 1280.16 763.304 1282.14C762.314 1284.09 760.949 1285.61 759.209 1286.69C757.499 1287.77 755.579 1288.31 753.449 1288.31C751.589 1288.31 749.954 1287.95 748.544 1287.23C747.164 1286.48 746.054 1285.52 745.214 1284.35V1287.9H738.914V1254.6H745.214V1266.62ZM758.399 1275.35C758.399 1273.85 758.084 1272.56 757.454 1271.48C756.854 1270.37 756.044 1269.53 755.024 1268.96C754.034 1268.39 752.954 1268.1 751.784 1268.1C750.644 1268.1 749.564 1268.4 748.544 1269C747.554 1269.57 746.744 1270.41 746.114 1271.52C745.514 1272.63 745.214 1273.94 745.214 1275.44C745.214 1276.94 745.514 1278.24 746.114 1279.35C746.744 1280.46 747.554 1281.32 748.544 1281.92C749.564 1282.49 750.644 1282.77 751.784 1282.77C752.954 1282.77 754.034 1282.47 755.024 1281.87C756.044 1281.27 756.854 1280.42 757.454 1279.31C758.084 1278.2 758.399 1276.88 758.399 1275.35ZM800.372 1262.61C803.432 1262.61 805.892 1263.56 807.752 1265.45C809.642 1267.31 810.587 1269.92 810.587 1273.28V1287.9H804.287V1274.13C804.287 1272.18 803.792 1270.7 802.802 1269.68C801.812 1268.63 800.462 1268.1 798.752 1268.1C797.042 1268.1 795.677 1268.63 794.657 1269.68C793.667 1270.7 793.172 1272.18 793.172 1274.13V1287.9H786.872V1274.13C786.872 1272.18 786.377 1270.7 785.387 1269.68C784.397 1268.63 783.047 1268.1 781.337 1268.1C779.597 1268.1 778.217 1268.63 777.197 1269.68C776.207 1270.7 775.712 1272.18 775.712 1274.13V1287.9H769.412V1262.97H775.712V1265.99C776.522 1264.94 777.557 1264.11 778.817 1263.51C780.107 1262.91 781.517 1262.61 783.047 1262.61C784.997 1262.61 786.737 1263.03 788.267 1263.87C789.797 1264.68 790.982 1265.85 791.822 1267.38C792.632 1265.94 793.802 1264.79 795.332 1263.92C796.892 1263.05 798.572 1262.61 800.372 1262.61ZM819.76 1260C818.65 1260 817.72 1259.66 816.97 1258.97C816.25 1258.25 815.89 1257.36 815.89 1256.31C815.89 1255.26 816.25 1254.39 816.97 1253.7C817.72 1252.98 818.65 1252.62 819.76 1252.62C820.87 1252.62 821.785 1252.98 822.505 1253.7C823.255 1254.39 823.63 1255.26 823.63 1256.31C823.63 1257.36 823.255 1258.25 822.505 1258.97C821.785 1259.66 820.87 1260 819.76 1260ZM822.865 1262.97V1287.9H816.565V1262.97H822.865ZM836.424 1268.15V1280.21C836.424 1281.05 836.619 1281.66 837.009 1282.05C837.429 1282.41 838.119 1282.59 839.079 1282.59H842.004V1287.9H838.044C832.734 1287.9 830.079 1285.32 830.079 1280.16V1268.15H827.109V1262.97H830.079V1256.81H836.424V1262.97H842.004V1268.15H836.424Z" fill="white"/>
<path d="M809.555 80.1357C809.555 77.0457 810.245 74.2857 811.625 71.8557C813.035 69.3957 814.94 67.4907 817.34 66.1407C819.77 64.7607 822.485 64.0707 825.485 64.0707C828.995 64.0707 832.07 64.9707 834.71 66.7707C837.35 68.5707 839.195 71.0607 840.245 74.2407H833C832.28 72.7407 831.26 71.6157 829.94 70.8657C828.65 70.1157 827.15 69.7407 825.44 69.7407C823.61 69.7407 821.975 70.1757 820.535 71.0457C819.125 71.8857 818.015 73.0857 817.205 74.6457C816.425 76.2057 816.035 78.0357 816.035 80.1357C816.035 82.2057 816.425 84.0357 817.205 85.6257C818.015 87.1857 819.125 88.4007 820.535 89.2707C821.975 90.1107 823.61 90.5307 825.44 90.5307C827.15 90.5307 828.65 90.1557 829.94 89.4057C831.26 88.6257 832.28 87.4857 833 85.9857H840.245C839.195 89.1957 837.35 91.7007 834.71 93.5007C832.1 95.2707 829.025 96.1557 825.485 96.1557C822.485 96.1557 819.77 95.4807 817.34 94.1307C814.94 92.7507 813.035 90.8457 811.625 88.4157C810.245 85.9857 809.555 83.2257 809.555 80.1357ZM856.696 96.2907C854.296 96.2907 852.136 95.7657 850.216 94.7157C848.296 93.6357 846.781 92.1207 845.671 90.1707C844.591 88.2207 844.051 85.9707 844.051 83.4207C844.051 80.8707 844.606 78.6207 845.716 76.6707C846.856 74.7207 848.401 73.2207 850.351 72.1707C852.301 71.0907 854.476 70.5507 856.876 70.5507C859.276 70.5507 861.451 71.0907 863.401 72.1707C865.351 73.2207 866.881 74.7207 867.991 76.6707C869.131 78.6207 869.701 80.8707 869.701 83.4207C869.701 85.9707 869.116 88.2207 867.946 90.1707C866.806 92.1207 865.246 93.6357 863.266 94.7157C861.316 95.7657 859.126 96.2907 856.696 96.2907ZM856.696 90.8007C857.836 90.8007 858.901 90.5307 859.891 89.9907C860.911 89.4207 861.721 88.5807 862.321 87.4707C862.921 86.3607 863.221 85.0107 863.221 83.4207C863.221 81.0507 862.591 79.2357 861.331 77.9757C860.101 76.6857 858.586 76.0407 856.786 76.0407C854.986 76.0407 853.471 76.6857 852.241 77.9757C851.041 79.2357 850.441 81.0507 850.441 83.4207C850.441 85.7907 851.026 87.6207 852.196 88.9107C853.396 90.1707 854.896 90.8007 856.696 90.8007ZM905.282 70.5957C908.342 70.5957 910.802 71.5407 912.662 73.4307C914.552 75.2907 915.497 77.9007 915.497 81.2607V95.8857H909.197V82.1157C909.197 80.1657 908.702 78.6807 907.712 77.6607C906.722 76.6107 905.372 76.0857 903.662 76.0857C901.952 76.0857 900.587 76.6107 899.567 77.6607C898.577 78.6807 898.082 80.1657 898.082 82.1157V95.8857H891.782V82.1157C891.782 80.1657 891.287 78.6807 890.297 77.6607C889.307 76.6107 887.957 76.0857 886.247 76.0857C884.507 76.0857 883.127 76.6107 882.107 77.6607C881.117 78.6807 880.622 80.1657 880.622 82.1157V95.8857H874.322V70.9557H880.622V73.9707C881.432 72.9207 882.467 72.0957 883.727 71.4957C885.017 70.8957 886.427 70.5957 887.957 70.5957C889.907 70.5957 891.647 71.0157 893.177 71.8557C894.707 72.6657 895.892 73.8357 896.732 75.3657C897.542 73.9257 898.712 72.7707 900.242 71.9007C901.802 71.0307 903.482 70.5957 905.282 70.5957ZM927.775 74.5557C928.585 73.4157 929.695 72.4707 931.105 71.7207C932.545 70.9407 934.18 70.5507 936.01 70.5507C938.14 70.5507 940.06 71.0757 941.77 72.1257C943.51 73.1757 944.875 74.6757 945.865 76.6257C946.885 78.5457 947.395 80.7807 947.395 83.3307C947.395 85.8807 946.885 88.1457 945.865 90.1257C944.875 92.0757 943.51 93.5907 941.77 94.6707C940.06 95.7507 938.14 96.2907 936.01 96.2907C934.18 96.2907 932.56 95.9157 931.15 95.1657C929.77 94.4157 928.645 93.4707 927.775 92.3307V107.766H921.475V70.9557H927.775V74.5557ZM940.96 83.3307C940.96 81.8307 940.645 80.5407 940.015 79.4607C939.415 78.3507 938.605 77.5107 937.585 76.9407C936.595 76.3707 935.515 76.0857 934.345 76.0857C933.205 76.0857 932.125 76.3857 931.105 76.9857C930.115 77.5557 929.305 78.3957 928.675 79.5057C928.075 80.6157 927.775 81.9207 927.775 83.4207C927.775 84.9207 928.075 86.2257 928.675 87.3357C929.305 88.4457 930.115 89.3007 931.105 89.9007C932.125 90.4707 933.205 90.7557 934.345 90.7557C935.515 90.7557 936.595 90.4557 937.585 89.8557C938.605 89.2557 939.415 88.4007 940.015 87.2907C940.645 86.1807 940.96 84.8607 940.96 83.3307ZM950.353 83.3307C950.353 80.8107 950.848 78.5757 951.838 76.6257C952.858 74.6757 954.223 73.1757 955.933 72.1257C957.673 71.0757 959.608 70.5507 961.738 70.5507C963.598 70.5507 965.218 70.9257 966.598 71.6757C968.008 72.4257 969.133 73.3707 969.973 74.5107V70.9557H976.318V95.8857H969.973V92.2407C969.163 93.4107 968.038 94.3857 966.598 95.1657C965.188 95.9157 963.553 96.2907 961.693 96.2907C959.593 96.2907 957.673 95.7507 955.933 94.6707C954.223 93.5907 952.858 92.0757 951.838 90.1257C950.848 88.1457 950.353 85.8807 950.353 83.3307ZM969.973 83.4207C969.973 81.8907 969.673 80.5857 969.073 79.5057C968.473 78.3957 967.663 77.5557 966.643 76.9857C965.623 76.3857 964.528 76.0857 963.358 76.0857C962.188 76.0857 961.108 76.3707 960.118 76.9407C959.128 77.5107 958.318 78.3507 957.688 79.4607C957.088 80.5407 956.788 81.8307 956.788 83.3307C956.788 84.8307 957.088 86.1507 957.688 87.2907C958.318 88.4007 959.128 89.2557 960.118 89.8557C961.138 90.4557 962.218 90.7557 963.358 90.7557C964.528 90.7557 965.623 90.4707 966.643 89.9007C967.663 89.3007 968.473 88.4607 969.073 87.3807C969.673 86.2707 969.973 84.9507 969.973 83.4207ZM996.286 70.5957C999.256 70.5957 1001.66 71.5407 1003.49 73.4307C1005.32 75.2907 1006.23 77.9007 1006.23 81.2607V95.8857H999.931V82.1157C999.931 80.1357 999.436 78.6207 998.446 77.5707C997.456 76.4907 996.106 75.9507 994.396 75.9507C992.656 75.9507 991.276 76.4907 990.256 77.5707C989.266 78.6207 988.771 80.1357 988.771 82.1157V95.8857H982.471V70.9557H988.771V74.0607C989.611 72.9807 990.676 72.1407 991.966 71.5407C993.286 70.9107 994.726 70.5957 996.286 70.5957ZM1036.07 70.9557L1020.64 107.676H1013.93L1019.33 95.2557L1009.34 70.9557H1016.41L1022.84 88.3707L1029.37 70.9557H1036.07Z" fill="black"/>
</svg>
